<svg width="359" height="274" viewBox="0 0 359 274" fill="red" xmlns="http://www.w3.org/2000/svg">
<path d="M351.571 0.434245C351.571 0.434245 -42.6417 -19.6848 3.80393 213.965C3.80393 213.965 -5.55969 255.268 38.8232 274C38.8232 274 39.526 256.694 79.2732 262.594C93.4247 264.578 107.801 265.162 122.112 264.335C141.417 263.261 159.787 256.909 174.453 246.237V246.237C174.453 246.237 285.272 207.506 328.346 54.3292C328.346 54.3292 360.227 20.9072 358.963 12.311L292.439 36.3477C292.439 36.3477 315.192 76.9397 297.121 110.666C297.121 110.666 294.967 37.7987 282.185 39.3842C279.612 39.7027 247.634 53.4409 247.634 53.4409C247.634 53.4409 286.728 124.128 257.232 175.535C257.232 175.535 268.42 88.413 235.413 58.5512L188.595 81.6783C188.595 81.6783 234.291 154.705 203.297 214.305C203.297 214.305 211.246 122.904 178.716 87.3018L136.3 115.299C136.3 115.299 179.231 187.253 153.061 236.685C153.061 236.685 149.643 130.314 127.121 122.277C127.121 122.277 89.9924 149.998 84.3274 161.323C84.3274 161.323 113.728 213.597 95.4692 241.158C95.4692 241.158 84.2815 170.273 75.102 169.877C75.102 169.877 38.1163 216.842 34.2754 249.079C34.2754 249.079 35.8695 201.2 66.1568 165.442C66.1568 165.442 30.3884 170.63 9.5065 190.215C9.5065 190.215 15.2635 157.03 75.2859 154.1C75.2859 154.1 105.858 118.459 114.004 116.321C114.004 116.321 54.3581 112.075 18.1672 125.668C18.1672 125.668 50.0027 94.3443 124.962 108.599L166.863 79.6505C166.863 79.6505 88.3022 70.5801 54.969 80.6025C54.969 80.6025 93.3144 52.8818 178.147 73.0787L223.752 50.0294C223.752 50.0294 156.755 37.8305 116.866 42.1091C116.866 42.1091 159.002 22.9031 237.141 43.7335L269.913 31.3471C269.913 31.3471 220.848 23.1898 206.473 21.8839C192.097 20.5781 191.352 17.2515 191.352 17.2515C222.437 12.8676 254.35 15.8705 283.536 25.9254C283.536 25.9254 352.742 4.11831 351.571 0.434245Z" fill="#33a2fd17"/>
</svg>
