<svg width="426" height="322" viewBox="0 0 426 322" fill="none" xmlns="http://www.w3.org/2000/svg">
<path d="M425.999 165.1C426.02 147.27 421.153 129.686 411.792 113.771L335.075 134.268L402.427 100.273C391.134 86.2519 376.32 74.5885 359.077 66.1441C341.834 57.6996 322.604 52.6898 302.805 51.4845C299.654 47.378 296.197 43.4515 292.454 39.7296L182.278 69.192L272.651 23.5414C255.364 12.1447 235.072 4.58389 213.573 1.52796C192.073 -1.52797 170.028 0.0151793 149.388 6.02098C128.748 12.0268 110.149 22.31 95.2378 35.9607C80.3266 49.6114 69.5623 66.2089 63.8975 84.2843L158.272 177.602L55.8953 113.996C29.9618 129.795 11.4995 153.072 3.8725 179.585C-3.75454 206.098 -0.0387424 234.083 14.3429 258.439C28.7245 282.796 52.8146 301.904 82.224 312.282C111.633 322.66 144.404 323.616 174.566 314.977C201.849 323.592 231.664 324.301 259.459 316.995C278.839 320.677 298.934 320.576 318.262 316.699C337.591 312.822 355.659 305.268 371.136 294.594C386.612 283.919 399.102 270.397 407.684 255.024C416.266 239.651 420.722 222.819 420.722 205.77C420.722 203.279 420.722 200.789 420.432 198.298C424.184 187.529 426.06 176.342 425.999 165.1V165.1Z" fill="#215FFF"/>
</svg>
