<svg width="284" height="216" viewBox="0 0 284 216" fill="none" xmlns="http://www.w3.org/2000/svg">
<path d="M256.679 161.455C269.327 148.433 278.546 130.872 283.117 111.094C286.568 91.0534 279.803 67.5277 264.617 59.773C247.637 51.5826 229.483 66.3948 215.746 81.3815C202.01 96.3681 186.202 113.533 168.186 110.396C177.459 99.7918 184.398 86.3376 188.329 71.3436C192.26 56.3496 193.05 40.3264 190.62 24.8331C189.811 18.4149 187.641 12.393 184.338 7.4068C174.951 -5.31443 157.832 0.174932 146.581 10.1951C110.686 42.0853 100.678 103.6 100.47 159.016C96.8811 138.976 99.918 118.151 99.78 98.0239C99.6419 77.8965 95.2935 54.4578 81.557 43.8278C73.0818 38.0796 63.5639 35.2261 53.9461 35.5501C37.7937 34.8531 19.8464 36.8575 8.87102 51.757C-4.93446 70.229 -1.27601 101.335 10.5967 121.462C22.4694 141.59 40.6237 154.572 57.3284 168.688C70.7074 178.718 82.1071 192.453 90.6683 208.855C91.7151 211.106 92.5495 213.504 93.1536 216H194.348C216.974 201.44 237.94 183.093 256.679 161.455V161.455Z" fill="#2176FF"/>
</svg>
