<svg width="734" height="491" viewBox="0 0 734 491" fill="none" xmlns="http://www.w3.org/2000/svg">
<path d="M524.374 111.159H519.158C518.129 111.159 517.295 111.831 517.295 112.66V169.056C517.295 169.885 518.129 170.557 519.158 170.557H524.374C525.402 170.557 526.236 169.885 526.236 169.056V112.66C526.236 111.831 525.402 111.159 524.374 111.159Z" fill="#3F3D56"/>
<path d="M490.411 0H254.736C237.225 0 223.028 11.4441 223.028 25.5611V464.456C223.028 478.573 237.225 490.017 254.736 490.017H490.411C507.922 490.017 522.119 478.573 522.119 464.456V25.5611C522.119 11.4441 507.922 0 490.411 0Z" fill="#3F3D56"/>
<path d="M480.49 12.7634H446.181V16.0905C446.181 18.1615 445.675 20.2121 444.692 22.1254C443.708 24.0386 442.267 25.7769 440.45 27.2409C438.633 28.7049 436.475 29.8659 434.102 30.6577C431.728 31.4494 429.184 31.8563 426.615 31.8552H317.504C314.935 31.8563 312.39 31.4494 310.017 30.6577C307.643 29.8659 305.486 28.7049 303.669 27.2409C301.852 25.7769 300.41 24.0386 299.427 22.1254C298.443 20.2121 297.937 18.1615 297.937 16.0905V12.7634H265.814C259.514 12.7634 253.473 14.7809 249.018 18.372C244.563 21.9631 242.061 26.8337 242.061 31.9123V458.138C242.061 463.216 244.563 468.087 249.018 471.678C253.473 475.269 259.514 477.287 265.814 477.287H480.49C486.79 477.287 492.832 475.269 497.286 471.678C501.741 468.087 504.244 463.216 504.244 458.138V31.945C504.249 29.4276 503.639 26.9341 502.447 24.607C501.256 22.28 499.507 20.1652 497.301 18.3836C495.095 16.602 492.474 15.1885 489.59 14.2242C486.705 13.2598 483.613 12.7634 480.49 12.7634V12.7634Z" fill="white"/>
<path d="M382.342 14.6338H346.871C345.133 14.6338 343.724 15.7697 343.724 17.1709V18.9298C343.724 20.331 345.133 21.4669 346.871 21.4669H382.342C384.08 21.4669 385.489 20.331 385.489 18.9298V17.1709C385.489 15.7697 384.08 14.6338 382.342 14.6338Z" fill="#E6E8EC"/>
<path d="M396.62 21.9312C399.279 21.9312 401.434 20.1939 401.434 18.0508C401.434 15.9077 399.279 14.1704 396.62 14.1704C393.962 14.1704 391.807 15.9077 391.807 18.0508C391.807 20.1939 393.962 21.9312 396.62 21.9312Z" fill="#E6E8EC"/>
<path d="M374.4 296.635C405.648 296.635 430.979 276.214 430.979 251.024C430.979 225.834 405.648 205.414 374.4 205.414C343.152 205.414 317.821 225.834 317.821 251.024C317.821 276.214 343.152 296.635 374.4 296.635Z" fill="white"/>
<path d="M448.818 244.655C448.817 256.712 444.382 268.498 436.072 278.523C427.762 288.547 415.952 296.361 402.134 300.974C388.316 305.588 373.111 306.795 358.442 304.442C343.773 302.089 330.299 296.283 319.724 287.757C309.148 279.232 301.947 268.369 299.029 256.544C296.112 244.719 297.61 232.462 303.334 221.323C309.058 210.184 318.751 200.664 331.187 193.965C343.623 187.267 358.243 183.692 373.2 183.693C383.13 183.693 392.964 185.27 402.138 188.334C411.313 191.398 419.649 195.888 426.671 201.549C433.692 207.21 439.262 213.93 443.062 221.327C446.862 228.723 448.818 236.65 448.818 244.655V244.655ZM364.458 276.923L420.553 231.703C421.007 231.338 421.367 230.904 421.613 230.427C421.859 229.95 421.985 229.438 421.985 228.921C421.985 228.404 421.859 227.892 421.613 227.415C421.367 226.938 421.007 226.504 420.553 226.139L413.651 220.616C413.199 220.25 412.662 219.96 412.071 219.762C411.479 219.564 410.845 219.462 410.205 219.462C409.564 219.462 408.93 219.564 408.339 219.762C407.748 219.96 407.211 220.25 406.759 220.616L361.008 257.498L339.646 240.237C338.729 239.502 337.488 239.089 336.195 239.089C334.901 239.089 333.661 239.502 332.744 240.237L325.842 245.833C324.93 246.573 324.418 247.573 324.418 248.615C324.418 249.658 324.93 250.658 325.842 251.397L357.558 276.956C358.011 277.322 358.549 277.612 359.141 277.81C359.733 278.008 360.368 278.11 361.009 278.11C361.65 278.11 362.285 278.008 362.877 277.81C363.469 277.612 364.007 277.322 364.46 276.956L364.458 276.923Z" fill="#6C63FF"/>
<path d="M232.393 96.6042H231.61C230.581 96.6042 229.747 97.2764 229.747 98.1055V112.681C229.747 113.51 230.581 114.182 231.61 114.182H232.393C233.421 114.182 234.255 113.51 234.255 112.681V98.1055C234.255 97.2764 233.421 96.6042 232.393 96.6042Z" fill="#3F3D56"/>
<path d="M232.801 128.791H231.446C230.418 128.791 229.584 129.463 229.584 130.293V157.883C229.584 158.712 230.418 159.385 231.446 159.385H232.801C233.83 159.385 234.663 158.712 234.663 157.883V130.293C234.663 129.463 233.83 128.791 232.801 128.791Z" fill="#3F3D56"/>
<path d="M232.638 170.09H231.527C230.499 170.09 229.665 170.762 229.665 171.591V199.445C229.665 200.274 230.499 200.946 231.527 200.946H232.638C233.666 200.946 234.5 200.274 234.5 199.445V171.591C234.5 170.762 233.666 170.09 232.638 170.09Z" fill="#3F3D56"/>
<path d="M169.756 251.684C169.885 251.784 170.051 251.849 170.229 251.867C170.407 251.886 170.588 251.857 170.745 251.786C170.411 251.79 170.078 251.756 169.756 251.684Z" fill="url(#paint0_linear)"/>
<path d="M207.134 263.47L206.159 267.755L205.406 271.033L204.036 277.029L190.757 284.524C190.757 284.524 189.56 283.698 187.585 282.396C182.143 278.783 170.705 271.428 162.306 267.479C160.145 266.369 157.808 265.501 155.357 264.898L207.134 263.47Z" fill="#FEB9B9"/>
<path d="M197.393 266.658C197.393 266.658 212.876 268.801 213.783 263.47C214.689 258.14 205.813 255.259 198.291 254.901C190.768 254.542 145.619 257.043 145.619 257.043C145.619 257.043 137.655 265.606 166.417 267.039L197.393 266.658Z" fill="#3F3D56"/>
<path d="M231.253 90.7617H150.254V168.188H231.253V90.7617Z" fill="#2F2E41"/>
<path opacity="0.1" d="M231.253 91.113H150.254V168.54H231.253V91.113Z" fill="black"/>
<path d="M55.3245 223.306C53.9908 223.576 52.2862 224.617 50.3906 226.121C42.2273 232.636 30.5354 247.925 30.5354 247.925C15.5873 233.571 32.1285 222.23 39.1793 218.333C40.8936 217.39 42.0451 216.87 42.0451 216.87L55.3245 223.306Z" fill="#FEB9B9"/>
<path d="M206.246 115.198C206.246 115.198 210.23 137.676 223.951 143.028C237.671 148.38 206.246 158.383 206.246 158.383L163.316 145.528C163.316 145.528 187.661 139.104 182.789 120.192L206.246 115.198Z" fill="#FEB9B9"/>
<path d="M160.214 250.426L159.243 254.696L158.454 257.986L157.085 263.982L143.805 271.47C143.805 271.47 142.608 270.651 140.634 269.35C135.192 265.737 123.754 258.382 115.342 254.433C113.183 253.322 110.845 252.453 108.394 251.852L160.214 250.426Z" fill="#FEB9B9"/>
<path d="M148.727 255.692C148.727 255.692 162.623 255.771 163.459 250.426C164.295 245.08 155.886 242.215 148.727 241.856C141.568 241.497 98.0714 244.165 98.0714 244.165C98.0714 244.165 91.9005 254.261 119.26 255.691L148.727 255.692Z" fill="#2F2E41"/>
<path d="M246.155 339.668C245.548 339.427 244.939 339.179 244.341 338.938L242.708 337.278L221.293 315.386V315.766C221.148 319.422 219.606 348.392 207.579 351.068C194.744 353.92 179.261 354.637 172.203 335.37C165.145 316.103 152.248 274 139.005 271.5L158.705 258.477C158.705 258.477 171.749 270.776 177.063 282.548C176.864 281.817 167.857 247.89 175.249 241.887H239.881C239.881 241.887 249.859 264.795 256.697 276.143C262.021 284.954 270.012 305.786 275.158 319.884C280.251 333.804 262.355 346.096 246.155 339.668Z" fill="#3F3D56"/>
<path opacity="0.1" d="M244.314 248.283C234.336 253.043 190.535 251.106 176.286 250.331L172.404 250.104C171.986 250.104 172.467 249.914 172.467 249.914L172.866 246.675L183.488 224.914L240.359 198.327C239.207 201.128 238.826 205.413 238.917 210.319C239.18 226.084 244.314 248.283 244.314 248.283Z" fill="black"/>
<path d="M244.314 247.209C234.336 251.969 190.535 250.031 176.286 249.256L172.404 249.036L171.76 248.993L172.467 248.846L175.968 248.115L183.487 223.854L240.358 197.275C239.207 200.076 238.825 204.361 238.917 209.267C239.18 225.017 244.314 247.209 244.314 247.209Z" fill="#EFEFEF"/>
<path opacity="0.1" d="M238.881 209.252C227.316 211.402 201.865 217.709 192.086 232.943C185.565 243.084 180.077 247.435 176.249 249.255L172.367 249.036C172.392 248.973 172.414 248.91 172.43 248.846L175.931 248.115L183.451 223.854L240.322 197.275C239.183 200.061 238.79 204.346 238.881 209.252Z" fill="black"/>
<path opacity="0.1" d="M42.0451 216.886L55.3245 223.306C53.9907 223.577 52.2862 224.617 50.3905 226.121C49.2837 223.518 42.3395 219.884 39.1793 218.334C40.8928 217.405 42.0451 216.886 42.0451 216.886Z" fill="black"/>
<path opacity="0.1" d="M170 249.453C169.855 249.514 169.689 249.537 169.527 249.519C169.364 249.501 169.213 249.442 169.094 249.351C169.388 249.421 169.694 249.455 170 249.453V249.453Z" fill="black"/>
<path d="M200.051 141.602C200.051 141.602 188.097 142.669 179.689 135.533C179.689 135.533 144.313 143.744 132.332 162.295C120.352 180.845 38.9068 217.244 38.9068 217.244C38.9068 217.244 53.075 223.664 51.7413 226.874L105.302 201.896C105.302 201.896 124.349 190.841 129.638 188.34C134.926 185.84 164.169 170.499 170.364 212.243C176.559 253.987 170.364 248.993 170.364 248.993C170.364 248.993 179.217 251.494 192.051 231.51C204.886 211.526 244.714 206.89 244.714 206.89L246.927 185.846C246.927 185.846 254.827 171.895 248.741 166.104C246.897 164.39 245.671 162.301 245.195 160.064C244.188 154.719 245.195 145.813 259.29 138.414C280.977 126.992 289.385 117.721 289.385 117.721C289.385 117.721 289.829 110.936 276.551 107.725C263.272 104.515 209.276 87.0327 209.276 87.0327L207.461 93.1014L250.065 117.341C250.065 117.341 228.823 131.233 211.97 130.897C211.969 130.897 215.098 141.243 200.051 141.602Z" fill="#6C63FF"/>
<path opacity="0.1" d="M208.25 124.982C207.204 122.122 206.386 119.21 205.802 116.266L182.345 121.261C183.379 124.871 183.195 128.638 181.81 132.171C186.606 133.202 191.673 133.071 196.376 131.792C201.079 130.513 205.209 128.144 208.25 124.982V124.982Z" fill="black"/>
<path d="M188.768 131.79C202.699 131.79 213.993 122.686 213.993 111.455C213.993 100.225 202.699 91.1204 188.768 91.1204C174.836 91.1204 163.543 100.225 163.543 111.455C163.543 122.686 174.836 131.79 188.768 131.79Z" fill="#FEB9B9"/>
<path opacity="0.1" d="M216.205 275.22C216.205 275.22 230.809 298.414 226.382 305.543Z" fill="black"/>
<path d="M202.182 64.49C209.184 65.1338 215.833 67.5535 222.727 68.8772C224.45 69.3089 226.284 69.3643 228.042 69.0378C230.718 68.3724 232.895 66.1132 235.67 66.1788C237.378 66.2227 238.89 67.1589 240.296 68.0577C242.55 69.4488 244.673 70.974 246.645 72.6205C251.397 76.7808 254.345 82.3821 258.681 86.9082C263.016 91.4344 269.199 96.742 275.358 94.6664C271.168 107.828 258.1 116.061 243.253 116.881C237.33 117.208 231.262 116.215 225.529 117.612C224.101 118.084 222.593 118.379 221.056 118.489C217.755 118.489 215.097 116.047 213.038 113.67C208.212 108.084 204.394 101.745 198.961 96.6482C197.146 94.9594 195.051 93.3578 192.512 93.051C189.972 92.7442 187.641 93.7236 185.383 94.667C181.655 96.2247 177.846 97.8328 174.952 100.517C172.059 103.201 170.236 107.163 171.433 110.754C172.077 112.699 173.547 114.454 173.573 116.486C173.628 119.732 170.072 122.102 169.373 125.26C169.216 126.587 169.158 127.92 169.201 129.253C168.893 133.58 165.379 137.12 161.719 139.848C160.286 140.901 158.71 142.041 158.291 143.672C158.009 144.79 158.291 145.966 158.109 147.101C157.574 149.909 154.1 151.335 151.025 151.701C147.433 152.129 143.763 151.779 140.395 150.684C144.694 149.045 147.343 144.382 146.345 140.206C144.976 134.415 137.756 130.255 138.375 124.362C138.715 122.553 139.387 120.796 140.371 119.148C141.944 115.964 143.088 112.652 143.782 109.27C144.326 106.66 144.589 103.888 143.573 101.395C142.666 99.1283 140.77 97.3228 139.164 95.4065C136.988 92.7997 135.269 89.9625 134.058 86.9758C133.619 86.0898 133.452 85.1316 133.57 84.1823C133.934 83.0613 134.708 82.0546 135.793 81.2939C139.738 77.9504 143.956 74.4791 149.244 73.5213C151.767 73.1836 154.334 73.1049 156.881 73.2873C161.312 73.3993 165.748 73.2477 170.151 72.8336C173.779 72.4901 179.91 72.534 182.985 70.64C185.851 68.87 187.466 66.6475 190.994 65.5219C194.567 64.4543 198.407 64.1005 202.187 64.4907L202.182 64.49Z" fill="#2F2E41"/>
<path d="M670.889 488.799C691.098 488.799 707.48 486.566 707.48 483.811C707.48 481.056 691.098 478.823 670.889 478.823C650.68 478.823 634.297 481.056 634.297 483.811C634.297 486.566 650.68 488.799 670.889 488.799Z" fill="#6C63FF"/>
<path d="M686.022 475.654C687.69 474.554 688.905 473.073 689.508 471.406C689.962 469.726 689.071 467.735 687.068 467.085C684.829 466.395 682.433 467.65 680.625 468.912C678.817 470.173 676.73 471.618 674.355 471.347C675.578 470.456 676.493 469.325 677.012 468.064C677.531 466.802 677.636 465.454 677.316 464.151C677.209 463.61 676.923 463.103 676.488 462.684C675.25 461.612 672.991 462.067 671.51 462.918C666.778 465.596 665.459 470.785 665.431 475.44C664.949 473.76 665.358 472.007 665.34 470.305C665.322 468.603 664.749 466.633 662.938 465.735C661.821 465.251 660.565 465.013 659.298 465.045C657.169 464.979 654.802 465.155 653.347 466.409C651.526 467.964 652.018 470.576 653.583 472.278C655.149 473.98 657.542 475.073 659.744 476.254C661.505 477.101 663.006 478.257 664.136 479.636C664.271 479.829 664.38 480.033 664.461 480.245H677.757C680.754 479.022 683.534 477.478 686.02 475.656L686.022 475.654Z" fill="#6C63FF"/>
<path d="M173.392 491.001C186.728 491.001 197.54 489.527 197.54 487.708C197.54 485.89 186.728 484.416 173.392 484.416C160.055 484.416 149.243 485.89 149.243 487.708C149.243 489.527 160.055 491.001 173.392 491.001Z" fill="#EFEFEF"/>
<path d="M183.379 482.325C184.479 481.599 185.281 480.622 185.679 479.521C185.854 478.969 185.79 478.386 185.497 477.867C185.204 477.348 184.701 476.926 184.069 476.67C182.592 476.215 181.012 477.043 179.818 477.875C178.623 478.708 177.247 479.662 175.68 479.483C176.487 478.895 177.091 478.148 177.433 477.316C177.775 476.483 177.843 475.594 177.632 474.734C177.562 474.377 177.373 474.043 177.085 473.765C176.272 473.059 174.779 473.359 173.801 473.92C170.678 475.69 169.807 479.11 169.789 482.184C169.471 481.076 169.741 479.919 169.729 478.796C169.717 477.673 169.339 476.375 168.143 475.78C167.406 475.461 166.577 475.304 165.741 475.325C164.335 475.282 162.774 475.398 161.813 476.226C160.612 477.252 160.936 478.976 161.969 480.099C163.002 481.222 164.581 481.944 166.035 482.721C167.197 483.279 168.189 484.041 168.936 484.95C169.026 485.077 169.098 485.212 169.152 485.352H177.926C179.905 484.544 181.739 483.525 183.379 482.321V482.325Z" fill="#EFEFEF"/>
<path d="M36.8233 491.001C50.16 491.001 60.9715 489.527 60.9715 487.708C60.9715 485.89 50.16 484.416 36.8233 484.416C23.4866 484.416 12.6751 485.89 12.6751 487.708C12.6751 489.527 23.4866 491.001 36.8233 491.001Z" fill="#EFEFEF"/>
<path d="M46.8107 482.325C47.9111 481.599 48.713 480.622 49.1105 479.521C49.2856 478.969 49.2215 478.386 48.9288 477.867C48.6361 477.348 48.1324 476.926 47.5011 476.67C46.0234 476.215 44.4441 477.043 43.2495 477.875C42.0548 478.708 40.6789 479.662 39.1118 479.483C39.9184 478.895 40.5222 478.148 40.8642 477.316C41.2063 476.483 41.2749 475.594 41.0635 474.734C40.9931 474.377 40.8043 474.043 40.517 473.765C39.7038 473.059 38.2107 473.359 37.2324 473.92C34.1095 475.69 33.2386 479.11 33.2207 482.184C32.9027 481.076 33.1727 479.919 33.1605 478.796C33.1483 477.673 32.7702 476.375 31.5747 475.78C30.8373 475.461 30.0088 475.304 29.1724 475.325C27.7671 475.282 26.2057 475.398 25.2445 476.226C24.0433 477.252 24.3678 478.976 25.4006 480.099C26.4334 481.222 28.0127 481.944 29.4668 482.721C30.629 483.279 31.6205 484.041 32.3676 484.95C32.4576 485.077 32.5301 485.212 32.5839 485.352H41.3579C43.3363 484.544 45.1704 483.525 46.8107 482.321V482.325Z" fill="#EFEFEF"/>
<path d="M734 489.121H0V490.314H734V489.121Z" fill="#2F2E41"/>
<path d="M698.171 33.1224C698.171 33.1224 621.547 29.3955 630.575 72.6782C630.575 72.6782 628.755 80.3294 637.382 83.7994C637.382 83.7994 637.519 80.5936 645.244 81.6865C647.995 82.054 650.789 82.1622 653.571 82.009C657.323 81.81 660.894 80.6334 663.745 78.6564V78.6564C663.745 78.6564 685.285 71.4817 693.657 43.1063C693.657 43.1063 699.854 36.915 699.608 35.3226L686.678 39.7753C686.678 39.7753 691.1 47.2948 687.588 53.5424C687.588 53.5424 687.169 40.0441 684.685 40.3378C684.184 40.3968 677.969 42.9417 677.969 42.9417C677.969 42.9417 685.568 56.0363 679.834 65.5592C679.834 65.5592 682.009 49.4202 675.593 43.8884L666.493 48.1726C666.493 48.1726 675.375 61.7005 669.351 72.7411C669.351 72.7411 670.896 55.8094 664.573 49.2143L656.329 54.4006C656.329 54.4006 664.673 67.7298 659.586 76.887C659.586 76.887 658.922 57.1822 654.544 55.6934C654.544 55.6934 647.328 60.8286 646.227 62.9264C646.227 62.9264 651.941 72.61 648.392 77.7156C648.392 77.7156 646.218 64.5844 644.433 64.511C644.433 64.511 637.244 73.2111 636.498 79.1828C636.498 79.1828 636.808 70.3135 642.695 63.6895C642.695 63.6895 635.742 64.6506 631.684 68.2786C631.684 68.2786 632.803 62.1312 644.469 61.5884C644.469 61.5884 650.412 54.986 651.995 54.5901C651.995 54.5901 640.401 53.8034 633.367 56.3214C633.367 56.3214 639.555 50.5189 654.125 53.1596L662.269 47.7969C662.269 47.7969 646.999 46.1167 640.52 47.9733C640.52 47.9733 647.973 42.8381 664.463 46.5795L673.327 42.3097C673.327 42.3097 660.305 40.0499 652.551 40.8425C652.551 40.8425 660.741 37.2847 675.929 41.1435L682.299 38.8489C682.299 38.8489 672.763 37.3378 669.968 37.0959C667.174 36.854 667.029 36.2378 667.029 36.2378C673.071 35.4257 679.274 35.9819 684.947 37.8446C684.947 37.8446 698.399 33.8049 698.171 33.1224Z" fill="#6C63FF"/>
<path d="M593.185 10.208C593.185 10.208 558.605 8.52775 562.645 28.0857C562.645 28.0857 561.831 31.5412 565.72 33.1107C565.72 33.1107 565.784 31.6435 569.278 32.1496C570.519 32.318 571.781 32.3673 573.036 32.2965C574.734 32.2059 576.348 31.6699 577.632 30.7703V30.7703C577.632 30.7703 587.369 27.5278 591.154 14.7046C591.154 14.7046 593.948 11.9099 593.838 11.1907L587.996 13.2007C587.996 13.2007 589.989 16.5973 588.423 19.4215C588.423 19.4215 588.232 13.3246 587.113 13.4649C586.886 13.4649 584.073 14.645 584.073 14.645C584.073 14.645 587.513 20.5649 584.92 24.8641C584.92 24.8641 585.902 17.5721 583 15.0704L578.887 17.0372C578.887 17.0372 582.9 23.1478 580.179 28.1368C580.179 28.1368 580.88 20.4855 578.022 17.5072L574.3 19.8549C574.3 19.8549 578.068 25.8777 575.774 30.0163C575.774 30.0163 575.465 21.1103 573.49 20.4357C573.49 20.4357 570.232 22.7538 569.731 23.7077C569.731 23.7077 572.316 28.1093 570.714 30.3907C570.714 30.3907 569.731 24.4557 568.894 24.4249C568.894 24.4249 565.646 28.3584 565.309 31.0273C565.472 28.5375 566.438 26.1252 568.112 24.0289C566.237 24.3152 564.507 25.0369 563.134 26.1052C563.134 26.1052 563.644 23.3248 568.913 23.0829C568.913 23.0829 571.643 20.0974 572.317 19.9139C572.317 19.9139 567.075 19.5618 563.899 20.7006C563.899 20.7006 566.692 18.0815 573.272 19.2701L576.912 16.849C576.912 16.849 570.008 16.1082 567.08 16.9251C567.08 16.9251 570.447 14.6069 577.9 16.2944L581.905 14.365C581.905 14.365 576.017 13.3456 572.513 13.7095C572.513 13.7095 576.217 12.1026 583.079 13.8406L585.946 12.8061C585.946 12.8061 581.635 12.1236 580.367 12.0135C579.098 11.9033 579.038 11.6247 579.038 11.6247C581.77 11.2584 584.574 11.5124 587.137 12.3583C587.137 12.3583 593.292 10.5135 593.185 10.208Z" fill="#3F3D56"/>
<path d="M59.9127 308.783C59.9127 308.783 25.3323 307.103 29.3724 326.661C29.3724 326.661 28.5592 330.117 32.4481 331.686C32.4481 331.686 32.5115 330.219 36.006 330.725C37.2471 330.893 38.5085 330.943 39.7639 330.872C41.4614 330.781 43.0755 330.245 44.3595 329.346V329.346C44.3595 329.346 54.0964 326.103 57.8821 313.28C57.8821 313.28 60.6755 310.485 60.5657 309.766L54.7234 311.776C54.7234 311.776 56.7167 315.173 55.1512 317.997C55.1512 317.997 54.9601 311.9 53.841 312.04C53.6133 312.04 50.8012 313.22 50.8012 313.22C50.8012 313.22 54.2412 319.14 51.6478 323.44C51.6478 323.44 52.6301 316.148 49.7277 313.646L45.6144 315.613C45.6144 315.613 49.6277 321.723 46.9066 326.712C46.9066 326.712 47.6076 319.061 44.7499 316.083L41.0277 318.43C41.0277 318.43 44.7954 324.453 42.5021 328.592C42.5021 328.592 42.1931 319.686 40.2178 319.011C40.2178 319.011 36.9599 321.329 36.459 322.283C36.459 322.283 39.0434 326.685 37.4422 328.966C37.4422 328.966 36.459 323.031 35.6222 323C35.6222 323 32.3733 326.934 32.0366 329.603C32.1993 327.113 33.1656 324.701 34.8398 322.604C32.965 322.891 31.2349 323.612 29.862 324.681C29.862 324.681 30.3719 321.9 35.6409 321.658C35.6409 321.658 38.3709 318.673 39.0443 318.489C39.0443 318.489 33.8029 318.137 30.6264 319.276C30.6264 319.276 33.4199 316.657 39.9998 317.846L43.6399 315.424C43.6399 315.424 36.7355 314.684 33.8078 315.501C33.8078 315.501 37.1746 313.182 44.6279 314.87L48.6323 312.94C48.6323 312.94 42.7445 311.921 39.2411 312.285C39.2411 312.285 42.9445 310.678 49.8066 312.416L52.6733 311.382C52.6733 311.382 48.3631 310.699 47.0945 310.589C45.8258 310.479 45.7656 310.2 45.7656 310.2C48.4974 309.834 51.3018 310.088 53.8647 310.934C53.8647 310.934 60.0192 309.089 59.9127 308.783Z" fill="#3F3D56"/>
<defs>
<linearGradient id="paint0_linear" x1="170.255" y1="251.874" x2="170.255" y2="251.684" gradientUnits="userSpaceOnUse">
<stop stop-color="#808080" stop-opacity="0.251"/>
<stop offset="0.54" stop-color="#808080" stop-opacity="0.122"/>
<stop offset="1" stop-color="#808080" stop-opacity="0.102"/>
</linearGradient>
</defs>
</svg>
