<svg width="874" height="802" viewBox="0 0 874 802" fill="none" xmlns="http://www.w3.org/2000/svg">
<g clip-path="url(#clip0)">
<path opacity="0.1" d="M489.35 125.35C441.47 123.69 395.87 108.24 352.35 91.3499C308.83 74.4599 265.65 55.7199 218.92 46.7199C188.86 40.9599 154.49 40.1399 130.27 56.2499C106.97 71.7599 99.43 98.5299 95.39 123.37C92.39 142.06 90.55 161.73 98.9 179.22C104.69 191.37 114.98 201.58 122.09 213.22C146.85 253.7 129.35 303.62 102.52 343.15C89.94 361.69 75.34 379.38 65.63 399.15C55.92 418.92 51.42 441.5 59.92 461.64C68.34 481.64 88.41 496.58 110.15 507.13C154.31 528.54 206.34 534.67 257.08 538.13C369.4 545.81 482.31 542.49 594.93 539.13C636.6 537.89 678.46 536.64 719.46 530.2C742.23 526.62 765.74 520.94 782.27 507.2C803.27 489.79 808.45 460.32 794.39 438.49C770.8 401.88 705.6 392.78 689.11 353.49C680.04 331.86 689.36 307.77 702.54 287.72C730.83 244.72 778.24 206.94 780.74 157.72C782.46 123.95 759.66 90.1199 724.42 74.1299C687.48 57.3799 636.25 59.4899 609 87.2199C580.94 115.84 531.62 126.82 489.35 125.35Z" fill="#6C63FF"/>
<path opacity="0.1" d="M394.25 801.44C562.128 801.44 698.22 783.03 698.22 760.32C698.22 737.61 562.128 719.2 394.25 719.2C226.372 719.2 90.28 737.61 90.28 760.32C90.28 783.03 226.372 801.44 394.25 801.44Z" fill="#6C63FF"/>
<path d="M469.27 209.6C469.27 209.6 459.86 191.03 461.13 185.51C462.4 179.99 454.51 168.2 454.51 168.2L455.02 148.64C455.02 148.64 453.93 150.64 448.25 152.39C447.77 151.76 447.25 151.14 446.71 150.55C444.653 148.408 442.366 146.5 439.89 144.86L429.89 123.28L420.22 108.47C420.22 108.47 404.97 77.47 389.22 70.63L386.74 65.78C386.822 65.7317 386.882 65.6547 386.91 65.5641C386.938 65.4734 386.931 65.3756 386.89 65.29L384.37 60.36C384.325 60.2747 384.25 60.2091 384.16 60.1759C384.069 60.1427 383.97 60.1441 383.88 60.18L381.47 55.46C380.55 49.3432 378.146 43.5446 374.47 38.57C374.22 38.22 373.95 37.9 373.69 37.57L377.61 37.43C381.05 37.3 384.89 37 387.2 34.43C388.028 33.4721 388.639 32.3463 388.99 31.13C389.287 30.1768 389.482 29.1945 389.57 28.2C389.57 28.05 389.57 27.9 389.57 27.76C389.57 27.42 389.57 27.0866 389.57 26.76C389.57 26.49 389.57 26.23 389.57 25.96C389.57 25.69 389.57 25.53 389.57 25.32C389.57 25.11 389.46 24.63 389.4 24.32C389.4 24.19 389.4 24.06 389.32 23.93C389.237 23.5382 389.133 23.1511 389.01 22.77C388.981 22.6952 388.957 22.6183 388.94 22.54C388.8 22.14 388.65 21.74 388.48 21.35C388.453 21.2986 388.429 21.2451 388.41 21.19C388.23 20.8 388.03 20.42 387.82 20.05L387.76 19.93C387.686 19.7748 387.603 19.6244 387.51 19.48C384.8 15.22 380.04 12.73 375.51 10.48C371.283 8.25747 366.944 6.25481 362.51 4.47997C346.024 -1.70245 327.815 -1.44537 311.51 5.19997C309.9 5.80974 308.374 6.62301 306.97 7.61997C305.013 9.27645 303.341 11.2425 302.02 13.44L294.27 24.89C293.187 26.2828 292.339 27.8434 291.76 29.51C290.31 34.95 294.86 40.4 294.35 46.01C294.09 48.8 292.59 51.36 292.3 54.15C291.93 57.75 293.6 61.22 295.23 64.47L306.32 86.47C305.73 89.36 305.08 92.32 304.37 95.18C299.26 100.46 297.54 103.34 297.07 104.9L296.92 104.98C295.908 105.634 295.037 106.484 294.36 107.48L283.82 117.72C283.82 117.72 265.5 122.48 261.69 128.51C261.69 128.51 232.94 127.25 233.19 167.4C233.19 167.4 231.92 182.46 231.19 184.47C230.46 186.48 231.19 206.8 231.19 206.8L230.85 247.96C230.85 247.96 229.75 269.79 230.85 277.57C231.95 285.35 233.22 314.96 233.22 314.96C233.22 314.96 240.09 343.82 237.55 354.11C235.11 363.96 237.55 385.5 241.55 385.59C242.31 387.16 243.18 387.93 244.13 387.49C244.544 387.311 244.968 387.157 245.4 387.03V411.62C245.4 411.62 240.45 446.07 246 452.62C242.32 457.86 238 466.8 236.9 469.15L198 467.06L193.05 468.45L188.51 469.72L185.76 532.99L186.86 533.07L186.78 535L189.38 535.19L185.76 598.91L239.61 603.34C237.24 608.65 234.49 614.34 233.42 614.89C231.42 615.89 227.06 612.89 226.04 614.13C225.02 615.37 221.97 616.89 218.41 616.13C214.85 615.37 212.56 619.39 212.56 619.39C212.56 619.39 213.08 619.85 213.86 620.7C208.08 620 200.77 623.1 196.8 625.1C195.02 626 193.91 626.67 193.91 626.67H183.41L189.18 663.48L193.25 666.26L194.25 695.26C194.25 695.26 210.53 745.45 217.99 745.12C218.474 745.103 218.949 744.981 219.383 744.764C219.816 744.546 220.197 744.238 220.5 743.86C224.5 739.24 221.73 723.37 221.73 723.37V696.95C221.73 696.95 227.83 694.27 227.15 692.26C226.47 690.25 236.99 668.26 237.93 666.26C237.957 666.243 237.979 666.22 237.993 666.191C238.007 666.163 238.013 666.131 238.01 666.1C238.01 663.84 242.59 661.33 242.33 660.33C242.07 659.33 253.53 653.05 254.33 647.53C255.13 642.01 262.72 645.02 262.72 645.02L272.38 633.92C272.67 647.45 273.22 656.92 274.17 659.32C278.75 670.87 280.53 688.94 280.53 688.94C280.53 688.94 277.73 702.74 280.53 707.26C282.25 710.02 286.25 712.98 289.03 715.43C286.14 724.19 286.55 742.81 286.55 742.81V753.51L307.92 759.51C307.92 759.51 308.59 754.16 309.61 754.16C310.63 754.16 324.2 764.53 324.2 764.53C324.2 764.53 376.44 765.2 389.66 764.53C394.66 764.28 396.02 762.13 395.25 759.53C393.98 755.2 386.85 749.59 380.51 749.16C370.33 748.49 357.44 737.79 357.44 737.79C357.44 737.79 358.44 735.44 353.03 732.1C349.29 729.8 338.94 720.49 332.54 715.04C332.84 714.63 333.15 714.22 333.44 713.78C333.44 713.78 324.79 701.78 326.58 696.46C328.37 691.14 325.81 683.46 325.81 683.46C325.81 683.46 320.98 668.65 320.98 661.12C320.98 656.35 320.26 629.22 319.74 609.98L324.2 610.35L324.29 608.43L326.29 608.61L345.2 610.35L344.62 590.14C353.73 586.14 361.31 582.43 364.45 580.06C375.13 572.06 384.29 571.53 384.29 571.53C384.29 571.53 405.91 559.99 409.22 555.22C412.53 550.45 412.22 515.82 412.22 515.82L410.44 441.6V441.54C410.44 441.54 408.92 405.66 405.86 397.88C404.74 395 401.97 385.4 398.94 374.44C400.682 374.261 402.44 374.335 404.16 374.66C404.27 377.34 404.34 379.18 404.34 379.81C404.34 384.07 410.44 387.69 410.44 387.69L406.12 291.69V226.38C419.44 230.62 451.65 231.94 451.65 231.94C474.86 230.72 469.27 209.6 469.27 209.6ZM343.63 127.12H343.56C344.033 124.603 344.651 122.116 345.41 119.67L343.63 127.12ZM256.21 456.39C264.1 457.69 273.21 457.31 273.9 455.78C273.97 455.63 274.06 455.36 274.18 455.01C274.43 455.45 274.67 455.9 274.92 456.36L274.15 470.84V471.17L248.15 469.77C249.97 462.02 253.41 458.24 256.21 456.39ZM342.88 529.45L342.21 506C343.37 501.68 344.41 497.76 345.3 494.4C345.7 497.19 346.04 499.76 346.3 502.13C348.76 524.38 345.13 528.72 342.88 529.45ZM416.88 177.87C415.39 178.44 409.72 174.87 404.34 171.17C404.34 170.49 404.39 169.82 404.42 169.17C405.18 153.86 380.25 144.33 372.62 142.57C370.768 142.092 368.972 141.422 367.26 140.57C363.195 138.556 359.242 136.323 355.42 133.88L355.52 133.59C355.52 133.59 345.68 127.36 345.47 119.59C347.712 112.523 350.542 105.655 353.93 99.06C354.12 98.67 354.33 98.26 354.53 97.87C359.18 96.4236 363.521 94.1245 367.33 91.09C368.86 111.09 397.8 128.3 397.8 128.3L400.89 133.3L401.62 134.48C400.06 135.4 399.31 136.14 399.84 136.57C402.04 138.33 407.36 148.29 409.56 152.5C410.16 153.64 410.56 154.35 410.56 154.35C410.56 154.35 415.29 167.22 418 177.99C417.64 177.84 417.244 177.798 416.86 177.87H416.88Z" fill="url(#paint0_linear)"/>
<path d="M428.06 126L427.72 126.45L426.56 128L404.31 143.72L399.59 135.96L396.59 130.96C396.59 130.96 352.24 104.36 371.31 78.72C390.38 53.08 418.56 111.22 418.56 111.22L428.06 126Z" fill="#FFC5D3"/>
<path d="M383.311 63.3623C383.216 63.1749 382.988 63.0994 382.801 63.1938C382.613 63.2882 382.538 63.5167 382.632 63.7041L385.106 68.6164C385.2 68.8038 385.429 68.8793 385.616 68.7849C385.804 68.6905 385.879 68.462 385.785 68.2745L383.311 63.3623Z" fill="#3A3768"/>
<path d="M357.92 70.2304L357.911 70.2349C357.807 70.2871 357.766 70.4133 357.818 70.5169L358.555 71.9816C358.608 72.0852 358.734 72.1269 358.837 72.0748L358.846 72.0703C358.95 72.0181 358.992 71.8918 358.939 71.7882L358.202 70.3235C358.15 70.2199 358.023 70.1782 357.92 70.2304Z" fill="#3A3768"/>
<path d="M359.939 73.6988C359.88 73.5804 359.735 73.5327 359.617 73.5923C359.499 73.652 359.451 73.7963 359.511 73.9147L360.909 76.6923C360.969 76.8107 361.113 76.8583 361.232 76.7987C361.35 76.7391 361.398 76.5948 361.338 76.4764L359.939 73.6988Z" fill="#3A3768"/>
<path d="M362.096 78.0221C362.039 77.9086 361.901 77.863 361.787 77.9201C361.674 77.9772 361.628 78.1155 361.685 78.229L363.106 81.0513C363.164 81.1647 363.302 81.2104 363.415 81.1532C363.529 81.0961 363.574 80.9578 363.517 80.8444L362.096 78.0221Z" fill="#3A3768"/>
<path d="M375.551 53.7171L356.866 63.1266C355.761 63.683 355.317 65.0299 355.873 66.1348L377.076 108.237C377.632 109.342 378.979 109.787 380.084 109.23L398.769 99.8208C399.873 99.2643 400.318 97.9175 399.762 96.8126L378.559 54.7102C378.002 53.6053 376.655 53.1606 375.551 53.7171Z" fill="#3A3768"/>
<path d="M373.16 56.39C373.053 56.4431 372.957 56.5169 372.879 56.6072C372.801 56.6976 372.741 56.8026 372.704 56.9162C372.667 57.0297 372.653 57.1496 372.662 57.2687C372.672 57.3878 372.705 57.5039 372.76 57.61L372.84 57.78C372.895 57.8869 372.928 58.0037 372.938 58.1236C372.948 58.2435 372.934 58.3641 372.897 58.4785C372.859 58.5928 372.8 58.6987 372.721 58.79C372.643 58.8812 372.547 58.956 372.44 59.01L362.82 63.85C362.714 63.9049 362.598 63.9382 362.479 63.9477C362.36 63.9573 362.24 63.9431 362.126 63.9058C362.013 63.8686 361.908 63.8091 361.817 63.7309C361.727 63.6526 361.653 63.5571 361.6 63.45L361.51 63.28C361.457 63.173 361.383 63.0775 361.293 62.999C361.203 62.9204 361.098 62.8604 360.985 62.8223C360.872 62.7843 360.752 62.7689 360.633 62.7771C360.513 62.7852 360.397 62.8168 360.29 62.87L358.42 63.82C358.215 63.9209 358.032 64.0616 357.882 64.2339C357.732 64.4062 357.618 64.6067 357.546 64.8236C357.475 65.0405 357.447 65.2695 357.465 65.4972C357.482 65.725 357.546 65.9469 357.65 66.15L378.09 106.72C378.3 107.131 378.663 107.442 379.102 107.587C379.54 107.731 380.017 107.696 380.43 107.49L397.21 99.04C397.621 98.8302 397.932 98.4667 398.076 98.0285C398.221 97.5902 398.186 97.1128 397.98 96.7L377.53 56.11C377.427 55.9057 377.285 55.7236 377.112 55.5742C376.938 55.4249 376.737 55.3112 376.52 55.2396C376.302 55.1681 376.073 55.1402 375.845 55.1574C375.617 55.1746 375.394 55.2367 375.19 55.34L373.16 56.39Z" fill="#2176FF"/>
<path d="M367.57 59.4625L365.042 60.7354C364.864 60.8248 364.793 61.0413 364.882 61.2189C364.972 61.3964 365.188 61.4679 365.366 61.3785L367.893 60.1056C368.071 60.0161 368.142 59.7997 368.053 59.6221C367.964 59.4446 367.747 59.3731 367.57 59.4625Z" fill="#E6E8EC"/>
<path d="M368.88 59.58C369.106 59.58 369.29 59.3964 369.29 59.17C369.29 58.9436 369.106 58.76 368.88 58.76C368.654 58.76 368.47 58.9436 368.47 59.17C368.47 59.3964 368.654 59.58 368.88 59.58Z" fill="#E6E8EC"/>
<path d="M387.56 212L381.31 379.72C381.31 379.72 402.31 372.72 405.56 377.97C408.81 383.22 402.06 293.97 402.06 293.97L387.56 212Z" fill="#5F5570"/>
<path opacity="0.15" d="M387.56 212L381.31 379.72C381.31 379.72 402.31 372.72 405.56 377.97C408.81 383.22 402.06 293.97 402.06 293.97L387.56 212Z" fill="black"/>
<path d="M388.56 764.83C375.56 765.5 324.23 764.83 324.23 764.83C324.23 764.83 310.89 754.5 309.89 754.5C308.89 754.5 308.23 759.83 308.23 759.83L287.23 753.83V743.17C287.23 743.17 286.56 712.82 292.89 711.5C299.22 710.18 327.23 711.5 327.23 711.5C328.23 711.17 347.23 729.17 352.56 732.5C357.89 735.83 356.89 738.17 356.89 738.17C356.89 738.17 369.56 748.83 379.56 749.5C385.79 749.92 392.8 755.5 394.05 759.83C394.81 762.44 393.46 764.58 388.56 764.83Z" fill="#BC8487"/>
<path opacity="0.1" d="M388.56 764.83C375.56 765.5 324.23 764.83 324.23 764.83C324.23 764.83 310.89 754.5 309.89 754.5C308.89 754.5 308.23 759.83 308.23 759.83L287.23 753.83V743.38L306.89 750.5L322.56 759.83H394.05C394.81 762.44 393.46 764.58 388.56 764.83Z" fill="black"/>
<g opacity="0.1">
<path d="M330.19 749.17C330.19 749.17 346.19 733.84 356.89 738.17Z" fill="black"/>
<path d="M330.19 749.17C330.19 749.17 346.19 733.84 356.89 738.17" stroke="black" stroke-miterlimit="10"/>
</g>
<path d="M228.89 692.83C229.56 694.83 223.56 697.5 223.56 697.5V723.83C223.56 723.83 226.28 739.64 222.35 744.25C222.055 744.624 221.682 744.93 221.257 745.145C220.833 745.361 220.366 745.482 219.89 745.5C212.56 745.83 196.56 695.83 196.56 695.83L195.56 666.94L191.56 664.17L185.89 627.5H196.23C196.23 627.5 197.32 626.83 199.07 625.93C204.07 623.38 214.54 618.93 220.23 623.17L239.56 666.72C239.56 666.72 228.23 690.83 228.89 692.83Z" fill="#BC8487"/>
<path opacity="0.1" d="M222.35 744.25C222.055 744.624 221.682 744.929 221.257 745.145C220.833 745.361 220.366 745.482 219.89 745.5C212.56 745.83 196.56 695.83 196.56 695.83L195.56 666.94L191.56 664.17L185.89 627.5H196.23C196.23 627.5 197.32 626.83 199.07 625.93L201.56 663.5L202.89 695.83C202.89 695.83 215.45 731.03 222.35 744.25Z" fill="black"/>
<path d="M407.81 556.25C404.56 561 383.31 572.5 383.31 572.5C383.31 572.5 374.31 573 363.81 581C358.38 585.14 339.51 593.35 322.56 600.32C306.73 606.83 292.56 612.25 292.56 612.25L276.24 631.25L263.81 645.72C263.81 645.72 256.31 642.72 255.56 648.22C254.81 653.72 243.56 659.97 243.81 660.97C244.06 661.97 239.56 664.47 239.56 666.72C239.56 668.97 222.81 650.47 223.06 639.22C223.31 627.97 214.56 620.22 214.56 620.22C214.56 620.22 216.81 616.22 220.31 616.97C223.81 617.72 226.81 616.22 227.81 614.97C228.81 613.72 233.06 616.72 235.06 615.72C237.06 614.72 245.06 594.97 245.06 594.97L276.23 574.06L338.23 532.5L341.09 530.58C341.09 530.58 349.34 534.36 345.99 503.39C345.34 497.39 344.25 490.1 342.59 481.22C332.34 426.47 369.09 420.22 369.09 420.22L401.34 430.97L409.09 442.97V443.03L410.84 516.97C410.84 516.97 411.06 551.5 407.81 556.25Z" fill="#433A59"/>
<path opacity="0.1" d="M322.31 591.25C322.31 591.25 322.41 594.8 322.56 600.32C306.73 606.83 292.56 612.25 292.56 612.25L276.24 631.25C275.97 615.5 276.03 595.04 276.24 574.07L338.24 532.51C330.57 560.94 322.31 591.25 322.31 591.25Z" fill="black"/>
<path opacity="0.1" d="M409.06 443V443.06L360.56 444C360.56 444 352.06 477.25 350.81 484.25C350.5 485.97 348.62 493.32 345.96 503.42C345.31 497.42 344.22 490.13 342.56 481.25C332.31 426.5 369.06 420.25 369.06 420.25L401.31 431L409.06 443Z" fill="black"/>
<path d="M281.31 352.25L275.06 472.25C275.06 472.25 270.56 648.5 275.06 660C279.56 671.5 281.31 689.5 281.31 689.5C281.31 689.5 278.56 703.25 281.31 707.75C284.06 712.25 292.81 717.25 292.56 719.75C292.31 722.25 319.31 735.75 333.31 714.25C333.31 714.25 324.81 702.25 326.56 697C328.31 691.75 325.81 684 325.81 684C325.81 684 321.06 669.25 321.06 661.72C321.06 654.19 319.31 591.22 319.31 591.22C319.31 591.22 346.56 491.22 347.81 484.22C349.06 477.22 357.56 443.97 357.56 443.97L409.06 442.97C409.06 442.97 407.56 407.22 404.56 399.47C401.56 391.72 386.81 334.97 386.81 334.97L281.31 352.25Z" fill="#433A59"/>
<path d="M195.36 469.89L190.89 471.17L190.71 475.59L324.73 477.32V475.58L195.36 469.89Z" fill="#7B728F"/>
<path d="M353.44 101.87C333.94 141.42 346.05 149.69 347.98 150.71C343.85 148.79 290.17 123.57 297.23 117.17C301.82 113 305.75 94.86 308.06 81.86C309.43 74.1 310.23 68.17 310.23 68.17L366.56 78.5C361.1 87.3 356.76 95.05 353.44 101.87Z" fill="#FFC5D3"/>
<path opacity="0.1" d="M427.76 126.45L426.6 128L404.31 143.72L399.59 135.96C406.46 131.96 427.06 124.96 427.06 124.96L427.76 126.45Z" fill="black"/>
<path d="M448.31 162.5C446.31 169.5 412.56 162.5 412.56 162.5L409.06 157C409.06 157 408.71 156.3 408.12 155.16C405.96 150.97 400.73 141.05 398.57 139.29C395.82 137.04 428.07 126.04 428.07 126.04L437.95 147.54C440.385 149.177 442.632 151.079 444.65 153.21C447.15 155.92 449.22 159.31 448.31 162.5Z" fill="#E5E8EF"/>
<path d="M392.31 165.72C392.31 165.72 412.31 181.5 415.31 180.36C418.31 179.22 466.81 211.97 466.81 211.97C466.81 211.97 472.31 232.97 449.56 234.22C449.56 234.22 401.31 232.22 399.31 225.22C397.31 218.22 392.31 165.72 392.31 165.72Z" fill="#5F5570"/>
<path opacity="0.1" d="M337.81 134L316.06 156.5L346.56 350.5L358.56 343.5C358.56 343.5 389.56 357.25 392.06 344.5C394.56 331.75 393.87 281.5 393.87 281.5L389.81 190.72C389.81 190.72 375.56 158.97 375.56 157.97C375.56 156.97 355.01 141.47 355.01 141.47L345.31 133.97L337.81 134Z" fill="black"/>
<path d="M337.81 131L316.06 153.5L346.56 347.5L358.56 340.5C358.56 340.5 389.56 354.25 392.06 341.5C394.56 328.75 393.87 278.5 393.87 278.5L389.81 187.72C389.81 187.72 375.56 155.97 375.56 154.97C375.56 153.97 355.01 138.47 355.01 138.47L345.31 130.97L337.81 131Z" fill="#E5E8EF"/>
<path opacity="0.1" d="M339.06 134.25L333.06 146.5L339.06 152.83C339.06 152.83 360.56 196.25 356.31 222L360.81 306.75L375.31 321L386.81 307.72L381.31 230.72C381.31 230.72 366.56 167.22 351.06 147.47L346.56 129.97L339.06 134.25Z" fill="black"/>
<path d="M339.06 132.25L333.06 144.5L339.06 150.83C339.06 150.83 360.56 194.25 356.31 220L360.81 304.75L375.31 319L386.81 305.72L381.31 228.72C381.31 228.72 366.56 165.22 351.06 145.47L346.56 127.97L339.06 132.25Z" fill="#BC8487"/>
<path opacity="0.1" d="M366.56 78.5C361.1 87.3 356.8 95.05 353.44 101.87C349.901 102.914 346.23 103.442 342.54 103.44C330.18 103.44 323.06 94.89 316.06 85.81C314.46 83.75 309.2 84.23 308.06 81.81C309.43 74.05 310.23 68.12 310.23 68.12L366.56 78.5Z" fill="black"/>
<path d="M380.87 64.1001C380.869 73.2287 377.611 82.0574 371.681 88.9976C365.751 95.9378 357.539 100.534 348.522 101.958C339.505 103.383 330.276 101.543 322.495 96.7689C314.714 91.995 308.892 84.6009 306.078 75.917C303.263 67.2332 303.64 57.8299 307.14 49.3992C310.641 40.9684 317.036 34.0638 325.174 29.9279C333.311 25.7919 342.658 24.6961 351.532 26.8377C360.406 28.9793 368.224 34.2176 373.58 41.6101C378.319 48.1513 380.87 56.0225 380.87 64.1001V64.1001Z" fill="#FFC5D3"/>
<path opacity="0.1" d="M330.31 149.5L298.81 111.5C298.81 111.5 295.9 110.33 305.73 100.04C305.73 100.04 341.83 128.18 344.07 132.96C346.31 137.74 330.31 149.5 330.31 149.5Z" fill="black"/>
<path d="M329.31 147.5L297.81 109.5C297.81 109.5 294.9 108.33 304.73 98.04C304.73 98.04 340.83 126.18 343.07 130.96C345.31 135.74 329.31 147.5 329.31 147.5Z" fill="#E5E8EF"/>
<path d="M409.06 389.35C409.06 389.35 403.06 385.75 403.06 381.5C403.06 377.25 400.06 317.25 400.06 317.25C400.06 317.25 395.66 281.44 391.06 252.98C388.36 236.21 385.59 221.98 383.63 219.16L383.55 219.04C378.3 212.29 379.3 179.29 346.55 131.04C346.99 131.34 358.28 139.26 366.55 143.24C368.233 144.086 369.999 144.756 371.82 145.24C379.32 146.99 403.82 156.49 403.07 171.74C402.32 186.99 404.82 221.99 404.82 221.99V293.72L409.06 389.35Z" fill="#5F5570"/>
<path d="M409.06 157C409.06 157 419.56 186 418.06 193.25C416.56 200.5 442.31 229 442.31 229L466.81 212C466.81 212 457.56 193.5 458.81 188C460.06 182.5 452.31 170.75 452.31 170.75L452.81 151.27C452.81 151.27 448.31 159.72 409.06 157Z" fill="#5F5570"/>
<path opacity="0.1" d="M373.58 41.6099L354.58 42.3299C352.724 42.3178 350.875 42.5498 349.08 43.0199C342.29 45.1099 339.16 52.3299 338.91 58.8199C338.66 65.3099 334.91 72.5799 327.64 73.1499C326.916 73.2728 326.173 73.1077 325.57 72.6899C325.109 72.1994 324.803 71.5837 324.69 70.9199C323.647 67.1383 322.035 63.5371 319.91 60.2399C316.91 60.7799 314.69 63.6299 313.91 66.6099C313.13 69.5899 313.34 72.7299 313.35 75.8199C313.359 79.7443 312.98 83.66 312.22 87.5099C309.12 83.4856 306.851 78.8852 305.544 73.9761C304.238 69.0671 303.92 63.9473 304.61 58.9144C305.3 53.8816 306.983 49.036 309.562 44.6594C312.141 40.2828 315.564 36.4626 319.633 33.4207C323.701 30.3787 328.334 28.1759 333.261 26.9402C338.188 25.7045 343.312 25.4605 348.335 26.2225C353.357 26.9845 358.178 28.7372 362.517 31.3788C366.856 34.0204 370.627 37.4982 373.61 41.6099H373.58Z" fill="black"/>
<path d="M348.09 42.02C349.885 41.5498 351.734 41.3178 353.59 41.33L376.66 40.47C380.04 40.34 383.81 40.04 386.08 37.53C386.895 36.5716 387.495 35.4497 387.84 34.24C388.434 32.3071 388.608 30.2697 388.351 28.264C388.094 26.2583 387.412 24.3307 386.35 22.61C383.68 18.36 379 15.89 374.54 13.61C370.389 11.3923 366.127 9.3897 361.77 7.60999C345.587 1.46435 327.67 1.72185 311.67 8.33C310.089 8.93677 308.591 9.73972 307.21 10.72C305.282 12.3724 303.639 14.3321 302.35 16.52L294.76 27.96C293.713 29.3569 292.905 30.9182 292.37 32.58C290.94 38.01 295.37 43.44 294.91 49.03C294.65 51.81 293.18 54.36 292.91 57.14C292.55 60.73 294.19 64.14 295.8 67.41L309.14 94.32C311.294 88.045 312.386 81.4544 312.37 74.82C312.37 71.73 312.11 68.59 312.93 65.61C313.75 62.63 315.93 59.78 318.93 59.24C321.061 62.5356 322.676 66.137 323.72 69.92C323.83 70.5845 324.137 71.2009 324.6 71.69C325.203 72.1088 325.946 72.274 326.67 72.15C333.98 71.58 337.67 64.38 337.94 57.82C338.21 51.26 341.3 44.11 348.09 42.02Z" fill="#8F7080"/>
<path d="M190.89 471.17L200.23 468.5L341.06 476.17L325.56 478.17L190.89 471.17Z" fill="#7B728F"/>
<path opacity="0.1" d="M190.89 471.17L200.23 468.5L341.06 476.17L325.56 478.17L190.89 471.17Z" fill="black"/>
<path d="M344.89 611.17L326.31 609.44L319.79 608.84V505.5L321.51 481.51L321.89 476.17H341.06L344.89 611.17Z" fill="#7B728F"/>
<path opacity="0.1" d="M339.81 607.5L324.99 605.86L319.79 605.29V507.31L321.16 484.57L321.46 479.5H336.75L339.81 607.5Z" fill="black"/>
<path d="M238.18 471.17C238.18 471.17 247.43 450.88 251.31 450.25C255.19 449.62 262.31 450.25 262.31 450.25L261.68 456.13C261.68 456.13 252.18 456.88 249.18 472.75L238.18 471.17Z" fill="#7B728F"/>
<path opacity="0.1" d="M238.18 471.17C238.18 471.17 247.43 450.88 251.31 450.25C255.19 449.62 262.31 450.25 262.31 450.25L261.68 456.13C261.68 456.13 252.18 456.88 249.18 472.75L238.18 471.17Z" fill="black"/>
<path d="M274.06 448.13C274.06 448.13 298.93 460.5 295.68 475L282.18 474.25C282.18 474.25 275.68 452.63 270.56 451.5C265.44 450.37 274.06 448.13 274.06 448.13Z" fill="#7B728F"/>
<path d="M366.56 252.25V252.98L366.06 336.25C366.06 336.25 353.31 406.25 349.81 409C346.31 411.75 269.56 404.25 269.56 404.25L234.81 170C234.56 130 262.81 131.25 262.81 131.25C266.56 125.25 284.56 120.5 284.56 120.5L294.56 110.75L294.88 110.3C295.544 109.309 296.401 108.463 297.4 107.81V107.81C299.46 106.62 300.77 108.19 301.52 109.74C301.858 110.468 302.119 111.228 302.3 112.01C342.81 141.72 366.56 252.25 366.56 252.25Z" fill="#5F5570"/>
<path opacity="0.1" d="M365.56 253.25V253.98C352.99 230.98 304.56 143.84 291.31 139.5L296.41 136C296.41 136 299.81 134 293.56 132C293.56 132 283.81 133.25 283.56 121.5L293.88 111.3L296.4 108.81L300.52 110.74C300.858 111.468 301.119 112.229 301.3 113.01C341.81 142.72 365.56 253.25 365.56 253.25Z" fill="black"/>
<path d="M366.56 252.25V252.98C353.99 229.98 305.56 142.84 292.31 138.5L297.41 135C297.41 135 300.81 133 294.56 131C294.56 131 284.81 132.25 284.56 120.5L294.88 110.3L297.4 107.81L301.52 109.74C301.858 110.468 302.119 111.229 302.3 112.01C342.81 141.72 366.56 252.25 366.56 252.25Z" fill="#433A59"/>
<path opacity="0.1" d="M384.64 220.12L384.56 220C379.31 213.25 380.31 180.25 347.56 132C348 132.3 359.29 140.22 367.56 144.2L365.25 151.82L370.25 154.49L384.64 220.12Z" fill="black"/>
<path d="M383.64 219.12L383.56 219C378.31 212.25 379.31 179.25 346.56 131C347 131.3 358.29 139.22 366.56 143.2L364.25 150.82L369.25 153.49L383.64 219.12Z" fill="#433A59"/>
<path opacity="0.1" d="M345.12 123.3L343.07 131.96C343.07 131.96 344.57 140.63 353.56 141.38L355.01 137.25C355.01 137.25 345.31 131.03 345.12 123.3Z" fill="black"/>
<path d="M345.12 122.3L343.07 130.96C343.07 130.96 344.57 139.63 353.56 140.38L355.01 136.25C355.01 136.25 345.31 130.03 345.12 122.3Z" fill="#E5E8EF"/>
<path opacity="0.1" d="M332.19 477.57L326.31 609.44L319.79 608.84V505.5L321.51 481.51L332.19 477.57Z" fill="black"/>
<path d="M192.23 528.5L188.23 599.83L324.23 611.17L330.19 477.57L192.23 528.5Z" fill="#7B728F"/>
<path opacity="0.1" d="M189.23 536.17L191.89 473.17L331.19 479.57L324.56 546.17L189.23 536.17Z" fill="black"/>
<path d="M188.23 534.17L190.89 471.17L330.19 477.57L323.56 544.17L188.23 534.17Z" fill="#7B728F"/>
<path d="M263.56 534.25H246.81V553.75H263.56V534.25Z" fill="#C3BBC8"/>
<path d="M249.31 406.5L246.81 413.25C246.81 413.25 241.56 450.25 248.06 454.75C254.56 459.25 273.81 459.5 274.81 457.25C275.81 455 282.81 429.5 282.81 429.5C282.81 429.5 289.06 448.25 292.31 446.75C295.56 445.25 284.81 409.61 284.81 409.61L249.31 406.5Z" fill="#FFC5D3"/>
<path opacity="0.1" d="M246.81 378.5V414.25C246.81 414.25 273.31 419.25 284.81 410.61C284.81 410.61 274.06 376 278.06 367.25C282.06 358.5 246.81 378.5 246.81 378.5Z" fill="black"/>
<path d="M246.81 377.5V413.25C246.81 413.25 273.31 418.25 284.81 409.61C284.81 409.61 274.06 375 278.06 366.25C282.06 357.5 246.81 377.5 246.81 377.5Z" fill="#E5E8EF"/>
<path opacity="0.1" d="M243.81 168.25L236.81 172C236.81 172 235.56 187 234.81 189C234.06 191 234.81 211.25 234.81 211.25L234.47 252.25C234.47 252.25 233.39 274 234.47 281.75C235.55 289.5 236.76 319 236.76 319C236.76 319 243.52 347.75 241.02 358C238.52 368.25 241.27 391.25 245.52 389.25C249.77 387.25 289.02 379.5 291.02 378C293.02 376.5 292.02 362.5 291.02 360.75C290.02 359 284.02 335.25 284.52 329.75C285.02 324.25 282.77 276 282.77 276C282.77 276 286.52 224.5 288.02 212.5C289.52 200.5 285.02 165.25 281.02 164.75C277.02 164.25 265.31 137 243.81 168.25Z" fill="black"/>
<path d="M241.81 166.25L234.81 170C234.81 170 233.56 185 232.81 187C232.06 189 232.81 209.25 232.81 209.25L232.47 250.25C232.47 250.25 231.39 272 232.47 279.75C233.55 287.5 234.76 317 234.76 317C234.76 317 241.52 345.75 239.02 356C236.52 366.25 239.27 389.25 243.52 387.25C247.77 385.25 287.02 377.5 289.02 376C291.02 374.5 290.02 360.5 289.02 358.75C288.02 357 282.02 333.25 282.52 327.75C283.02 322.25 280.77 274 280.77 274C280.77 274 284.52 222.5 286.02 210.5C287.52 198.5 283.02 163.25 279.02 162.75C275.02 162.25 263.31 135 241.81 166.25Z" fill="#5F5570"/>
<g opacity="0.1">
<path opacity="0.1" d="M317.42 55.49C314.42 56.03 312.2 58.88 311.42 61.86C310.64 64.84 310.85 67.98 310.86 71.07C310.879 77.7039 309.791 84.2945 307.64 90.57L294.29 63.66C294.03 63.13 293.76 62.58 293.5 62.03C294.118 63.8819 294.884 65.681 295.79 67.41L309.14 94.32C311.291 88.0445 312.379 81.4539 312.36 74.82C312.36 71.73 312.11 68.59 312.92 65.61C313.73 62.63 315.92 59.78 318.92 59.24C319.888 60.7568 320.754 62.337 321.51 63.97C320.494 60.9885 319.121 58.1411 317.42 55.49V55.49Z" fill="black"/>
<path opacity="0.1" d="M386.59 23.04C387.177 25.5002 387.094 28.0727 386.35 30.49C386.002 31.7004 385.398 32.8222 384.58 33.78C382.31 36.29 378.58 36.59 375.16 36.72L352.1 37.58C350.241 37.5678 348.389 37.7998 346.59 38.27C339.81 40.36 336.67 47.58 336.42 54.07C336.17 60.56 332.42 67.83 325.15 68.4C324.426 68.5229 323.684 68.3578 323.08 67.94V67.94C323.31 68.59 323.53 69.25 323.72 69.94C323.823 70.6049 324.126 71.2225 324.59 71.71C325.194 72.1278 325.936 72.2929 326.66 72.17C333.98 71.6 337.66 64.4 337.93 57.84C338.2 51.28 341.32 44.13 348.1 42.04C349.899 41.5698 351.751 41.3378 353.61 41.35L376.67 40.49C380.05 40.36 383.82 40.06 386.09 37.55C386.908 36.5922 387.511 35.4704 387.86 34.26C388.427 32.4024 388.607 30.4482 388.388 28.5184C388.17 26.5885 387.558 24.724 386.59 23.04V23.04Z" fill="black"/>
</g>
<path opacity="0.1" d="M349.04 433.19C349.04 433.19 357.7 428.69 361.04 428.94C364.38 429.19 394.37 467.33 394.37 467.33L349.04 433.19Z" fill="black"/>
<path opacity="0.1" d="M260.21 175.07C260.21 175.07 244.38 181.83 244.8 186.5C245.22 191.17 260.21 175.07 260.21 175.07Z" fill="black"/>
<path opacity="0.1" d="M252.5 197.17C252.5 197.17 235.89 218.41 239.56 219.12C243.23 219.83 252.5 197.17 252.5 197.17Z" fill="black"/>
<path opacity="0.1" d="M308.06 229C308.06 229 309.58 276.5 297.4 282.5L308.06 229Z" fill="black"/>
<path opacity="0.1" d="M244.76 355.83C244.76 355.83 256.48 349.17 259.17 350.5C261.86 351.83 244.76 355.83 244.76 355.83Z" fill="black"/>
<path opacity="0.1" d="M246.81 365.04C246.81 365.04 254.21 365.57 257.72 364.04C261.23 362.51 246.81 365.04 246.81 365.04Z" fill="black"/>
<path opacity="0.1" d="M423.46 190.13C423.46 190.13 432.64 216.5 437.93 216.5Z" fill="black"/>
<path opacity="0.1" d="M292.92 695.17C292.92 695.17 310.14 690.5 312.68 695.17C315.22 699.84 292.92 695.17 292.92 695.17Z" fill="black"/>
<path opacity="0.1" d="M238.18 625.93C238.18 625.93 233.89 632.5 239.56 634.5C245.23 636.5 238.18 625.93 238.18 625.93Z" fill="black"/>
<path opacity="0.1" d="M352.56 534.25C352.56 534.25 365.56 545.83 371.7 546.17C377.84 546.51 352.56 534.25 352.56 534.25Z" fill="black"/>
<path d="M864.6 59.83C864.6 59.83 780.41 54.72 790.33 113.72C790.33 113.72 788.33 124.15 797.81 128.89C797.81 128.89 797.96 124.51 806.45 126C809.469 126.501 812.537 126.649 815.59 126.44C819.712 126.16 823.632 124.549 826.76 121.85C826.76 121.85 850.43 112.08 859.63 73.39C859.63 73.39 866.44 64.95 866.17 62.78L851.96 68.85C851.96 68.85 856.82 79.1 852.96 87.62C852.96 87.62 852.5 69.22 849.77 69.62C849.21 69.71 842.38 73.17 842.38 73.17C842.38 73.17 850.74 91.03 844.43 104C844.43 104 846.83 82 839.78 74.46L829.78 80.3C829.78 80.3 839.55 98.74 832.93 113.79C832.93 113.79 834.63 90.71 827.68 81.72L818.62 88.79C818.62 88.79 827.79 106.97 822.2 119.45C822.2 119.45 821.47 92.58 816.65 90.55C816.65 90.55 808.73 97.55 807.52 100.41C807.52 100.41 813.8 113.61 809.9 120.57C809.9 120.57 807.51 102.67 805.55 102.57C805.55 102.57 797.65 114.43 796.83 122.57C796.83 122.57 797.17 110.47 803.64 101.44C803.64 101.44 796 102.75 791.54 107.71C791.54 107.71 792.77 99.32 805.54 98.59C805.54 98.59 812.06 89.59 813.81 89.04C813.81 89.04 801.06 87.98 793.33 91.4C793.33 91.4 800.14 83.49 816.15 87.09L825.15 79.79C825.15 79.79 808.36 77.49 801.25 80.03C801.25 80.03 809.44 73.03 827.56 78.13L837.3 72.3C837.3 72.3 822.99 69.22 814.47 70.3C814.47 70.3 823.47 65.45 840.15 70.71L847.15 67.58C847.15 67.58 836.67 65.52 833.6 65.2C830.53 64.88 830.36 64.02 830.36 64.02C837.003 62.9131 843.823 63.6712 850.06 66.21C850.06 66.21 864.86 60.72 864.6 59.83Z" fill="#2176FF"/>
<path d="M697.49 48.52C697.49 48.52 659.49 46.23 663.93 72.89C663.93 72.89 663.04 77.6 667.31 79.74C667.31 79.74 667.38 77.74 671.21 78.43C672.577 78.6648 673.967 78.732 675.35 78.63C677.197 78.4918 678.95 77.7625 680.35 76.55V76.55C680.35 76.55 691.04 72.13 695.2 54.65C695.2 54.65 698.28 50.84 698.2 49.86L691.76 52.6C691.76 52.6 693.95 57.23 692.23 61.08C692.23 61.08 692.02 52.77 690.78 52.96C690.53 52.96 687.45 54.57 687.45 54.57C687.45 54.57 691.22 62.64 688.37 68.5C688.37 68.5 689.46 58.56 686.27 55.15L681.76 57.79C681.76 57.79 686.17 66.12 683.18 72.92C683.18 72.92 683.95 62.49 680.81 58.43L676.72 61.63C676.72 61.63 680.86 69.84 678.33 75.48C678.33 75.48 678 63.34 675.83 62.42C675.83 62.42 672.25 65.58 671.7 66.88C671.7 66.88 674.54 72.88 672.78 75.99C672.78 75.99 671.7 67.9 670.78 67.86C670.78 67.86 667.21 73.22 666.84 76.86C667.013 73.4651 668.075 70.1753 669.92 67.32C667.859 67.708 665.957 68.692 664.45 70.15C664.45 70.15 665.01 66.36 670.8 66.03C670.8 66.03 673.75 61.96 674.54 61.72C674.54 61.72 668.78 61.23 665.28 62.78C665.28 62.78 668.36 59.21 675.59 60.78L679.59 57.48C679.59 57.48 672 56.48 668.79 57.59C668.79 57.59 672.49 54.43 680.67 56.73L685.08 54.1C685.08 54.1 678.61 52.71 674.76 53.21C674.76 53.21 678.82 51.02 686.37 53.39L689.51 51.98C689.51 51.98 684.78 51.05 683.39 50.9C682 50.75 681.93 50.37 681.93 50.37C684.932 49.877 688.012 50.2231 690.83 51.37C690.83 51.37 697.61 48.94 697.49 48.52Z" fill="#2176FF"/>
<path opacity="0.1" d="M846.6 727.43C861.473 727.43 873.53 725.393 873.53 722.88C873.53 720.367 861.473 718.33 846.6 718.33C831.727 718.33 819.67 720.367 819.67 722.88C819.67 725.393 831.727 727.43 846.6 727.43Z" fill="#6C63FF"/>
<path opacity="0.1" d="M26.93 659.7C41.803 659.7 53.86 657.663 53.86 655.15C53.86 652.637 41.803 650.6 26.93 650.6C12.057 650.6 0 652.637 0 655.15C0 657.663 12.057 659.7 26.93 659.7Z" fill="#6C63FF"/>
<path opacity="0.1" d="M827.86 639.3C842.733 639.3 854.79 637.263 854.79 634.75C854.79 632.237 842.733 630.2 827.86 630.2C812.987 630.2 800.93 632.237 800.93 634.75C800.93 637.263 812.987 639.3 827.86 639.3Z" fill="#6C63FF"/>
<path opacity="0.1" d="M131.09 684.11C145.963 684.11 158.02 682.073 158.02 679.56C158.02 677.047 145.963 675.01 131.09 675.01C116.217 675.01 104.16 677.047 104.16 679.56C104.16 682.073 116.217 684.11 131.09 684.11Z" fill="#6C63FF"/>
<path opacity="0.1" d="M707.82 688.02C722.693 688.02 734.75 685.983 734.75 683.47C734.75 680.957 722.693 678.92 707.82 678.92C692.947 678.92 680.89 680.957 680.89 683.47C680.89 685.983 692.947 688.02 707.82 688.02Z" fill="#6C63FF"/>
<path d="M787.66 778.44C809.867 778.44 827.87 775.396 827.87 771.64C827.87 767.885 809.867 764.84 787.66 764.84C765.453 764.84 747.45 767.885 747.45 771.64C747.45 775.396 765.453 778.44 787.66 778.44Z" fill="#2176FF"/>
<path d="M804.28 760.52C806.112 759.025 807.448 757.01 808.11 754.74C808.61 752.44 807.63 749.74 805.43 748.85C802.97 747.91 800.34 749.61 798.35 751.33C796.36 753.05 794.07 755.02 791.46 754.66C792.803 753.443 793.809 751.899 794.378 750.178C794.948 748.457 795.062 746.618 794.71 744.84C794.593 744.103 794.278 743.412 793.8 742.84C792.44 741.38 789.96 742.01 788.33 743.16C783.13 746.82 781.68 753.88 781.65 760.24C781.13 757.94 781.57 755.55 781.55 753.24C781.53 750.93 780.9 748.24 778.91 747.02C777.682 746.36 776.303 746.033 774.91 746.07C772.57 745.99 769.97 746.22 768.38 747.93C766.38 750.05 766.91 753.62 768.63 755.93C770.35 758.24 772.98 759.73 775.4 761.35C777.338 762.501 778.99 764.077 780.23 765.96C780.382 766.218 780.502 766.493 780.59 766.78H795.25C798.528 765.109 801.565 763.003 804.28 760.52V760.52Z" fill="#2176FF"/>
<path d="M132.48 567.72C132.48 567.72 137.98 574.9 129.95 585.72C121.92 596.54 115.3 605.72 117.95 612.48C117.95 612.48 130.07 592.34 139.95 592.06C149.83 591.78 143.33 579.86 132.48 567.72Z" fill="#2176FF"/>
<path opacity="0.1" d="M132.48 567.72C132.961 568.411 133.339 569.169 133.6 569.97C143.22 581.27 148.35 591.82 139.1 592.09C130.49 592.33 120.16 607.73 117.68 611.62C117.762 611.921 117.858 612.218 117.97 612.51C117.97 612.51 130.09 592.37 139.97 592.09C149.85 591.81 143.33 579.86 132.48 567.72Z" fill="black"/>
<path d="M142.69 576.9C142.69 579.43 142.41 581.48 142.06 581.48C141.71 581.48 141.43 579.48 141.43 576.9C141.43 574.32 141.78 575.56 142.13 575.56C142.48 575.56 142.69 574.37 142.69 576.9Z" fill="#FFD037"/>
<path d="M146.2 579.92C143.98 581.13 142.04 581.86 141.88 581.56C141.72 581.26 143.37 580.02 145.59 578.81C147.81 577.6 146.94 578.48 147.1 578.81C147.26 579.14 148.42 578.72 146.2 579.92Z" fill="#FFD037"/>
<path d="M103.47 567.72C103.47 567.72 97.97 574.9 106 585.72C114.03 596.54 120.65 605.72 118 612.48C118 612.48 105.89 592.34 96 592.06C86.11 591.78 92.62 579.86 103.47 567.72Z" fill="#6C63FF"/>
<path opacity="0.1" d="M103.47 567.72C102.988 568.412 102.607 569.17 102.34 569.97C92.72 581.27 87.6 591.82 96.84 592.09C105.46 592.33 115.79 607.73 118.27 611.62C118.19 611.923 118.089 612.22 117.97 612.51C117.97 612.51 105.86 592.37 95.97 592.09C86.08 591.81 92.62 579.86 103.47 567.72Z" fill="#2176FF"/>
<path d="M93.25 576.9C93.25 579.43 93.54 581.48 93.89 581.48C94.24 581.48 94.52 579.48 94.52 576.9C94.52 574.32 94.17 575.56 93.82 575.56C93.47 575.56 93.25 574.37 93.25 576.9Z" fill="#FFD037"/>
<path d="M89.76 579.92C91.98 581.13 93.91 581.86 94.08 581.56C94.25 581.26 92.58 580.02 90.36 578.81C88.14 577.6 89.02 578.48 88.85 578.81C88.68 579.14 87.53 578.72 89.76 579.92Z" fill="#FFD037"/>
<path d="M95 611.6C95 611.6 110.36 611.13 115 607.83C119.64 604.53 138.63 600.6 139.77 605.89C140.91 611.18 162.86 632.18 145.52 632.32C128.18 632.46 105.22 629.62 100.6 626.8C95.98 623.98 95 611.6 95 611.6Z" fill="#A8A8A8"/>
<path opacity="0.2" d="M145.82 630.48C128.48 630.62 105.52 627.78 100.9 624.96C97.39 622.82 95.98 615.13 95.51 611.58H95C95 611.58 96 623.97 100.59 626.78C105.18 629.59 128.17 632.44 145.51 632.3C150.51 632.3 152.24 630.48 152.15 627.84C151.45 629.45 149.54 630.45 145.82 630.48Z" fill="black"/>
</g>
<defs>
<linearGradient id="paint0_linear" x1="326.64" y1="764.83" x2="326.64" y2="-2.83534e-05" gradientUnits="userSpaceOnUse">
<stop stop-color="#808080" stop-opacity="0.25"/>
<stop offset="0.54" stop-color="#808080" stop-opacity="0.12"/>
<stop offset="1" stop-color="#808080" stop-opacity="0.1"/>
</linearGradient>
<clipPath id="clip0">
<rect width="873.53" height="801.44" fill="white"/>
</clipPath>
</defs>
</svg>
