<svg aria-hidden="true" style="position: absolute; width: 0; height: 0; overflow: hidden;" version="1.1" xmlns="http://www.w3.org/2000/svg" xmlns:xlink="http://www.w3.org/1999/xlink">
<defs>
<symbol id="icon-arrow-thin-up" viewBox="0 0 20 20">
<path d="M9 3.828l-6.071 6.071-1.414-1.414 8.485-8.485 8.485 8.485-1.414 1.414-6.071-6.071v16.172h-2v-16.172z"></path>
</symbol>
<symbol id="icon-arrow-thin-right" viewBox="0 0 20 20">
<path d="M16.172 9l-6.071-6.071 1.414-1.414 8.485 8.485-8.485 8.485-1.414-1.414 6.071-6.071h-16.172v-2z"></path>
</symbol>
<symbol id="icon-arrow-thin-left" viewBox="0 0 20 20">
<path d="M3.828 9l6.071-6.071-1.414-1.414-8.485 8.485 8.485 8.485 1.414-1.414-6.071-6.071h16.172v-2h-16.172z"></path>
</symbol>
<symbol id="icon-arrow-thin-down" viewBox="0 0 20 20">
<path d="M9 16.172l-6.071-6.071-1.414 1.414 8.485 8.485 8.485-8.485-1.414-1.414-6.071 6.071v-16.172h-2z"></path>
</symbol>
<symbol id="icon-arrow-thick-up" viewBox="0 0 20 20">
<path d="M7 10v8h6v-8h5l-8-8-8 8h5z"></path>
</symbol>
<symbol id="icon-arrow-thick-right" viewBox="0 0 20 20">
<path d="M10 7h-8v6h8v5l8-8-8-8v5z"></path>
</symbol>
<symbol id="icon-arrow-thick-left" viewBox="0 0 20 20">
<path d="M10 13h8v-6h-8v-5l-8 8 8 8v-5z"></path>
</symbol>
<symbol id="icon-arrow-thick-down" viewBox="0 0 20 20">
<path d="M7 10v-8h6v8h5l-8 8-8-8h5z"></path>
</symbol>
<symbol id="icon-dribbble2" viewBox="0 0 20 20">
<path d="M9.565 7.421c-1.358-2.414-2.811-4.383-2.917-4.528-2.191 1.036-3.826 3.055-4.337 5.487 0.206 0.004 3.482 0.043 7.254-0.959zM10.543 10.061c0.102-0.033 0.206-0.064 0.309-0.094-0.197-0.447-0.412-0.895-0.637-1.336-4.046 1.212-7.928 1.124-8.065 1.12-0.003 0.084-0.007 0.166-0.007 0.25 0 2.019 0.763 3.861 2.016 5.252l-0.005-0.006c0 0 2.15-3.814 6.389-5.186zM5.171 16.194v-0.004c-0.058-0.045-0.12-0.086-0.178-0.135 0.106 0.085 0.178 0.139 0.178 0.139zM8.118 2.372c-0.007 0.002-0.015 0.004-0.015 0.004 0.006-0.002 0.014-0.002 0.014-0.002l0.001-0.002zM15.189 4.104c-1.384-1.218-3.199-1.961-5.189-1.961-0.639 0-1.258 0.078-1.852 0.221 0.12 0.16 1.595 2.119 2.938 4.584 2.962-1.109 4.081-2.812 4.103-2.844zM10 19.2c-5.080 0-9.199-4.119-9.199-9.199-0.001-5.082 4.118-9.201 9.199-9.201s9.2 4.119 9.2 9.201c0 5.080-4.118 9.199-9.2 9.199zM11.336 11.286c-4.611 1.607-6.134 4.838-6.165 4.904 1.334 1.041 3.006 1.666 4.828 1.666 1.088 0 2.125-0.221 3.067-0.621-0.116-0.689-0.573-3.096-1.679-5.967-0.016 0.006-0.033 0.012-0.051 0.018zM11.69 8.12c0.184 0.373 0.358 0.754 0.523 1.139 0.059 0.135 0.114 0.272 0.17 0.406 2.713-0.342 5.385 0.238 5.473 0.256-0.019-1.863-0.686-3.572-1.787-4.912-0.018 0.023-1.279 1.843-4.379 3.111zM12.861 10.905c1.031 2.836 1.449 5.142 1.529 5.611 1.764-1.191 3.018-3.080 3.367-5.27-0.156-0.050-2.356-0.747-4.896-0.341z"></path>
</symbol>
<symbol id="icon-behance" viewBox="0 0 20 20">
<path d="M8.072 9.301c0 0 1.892-0.147 1.892-2.459 0-2.315-1.548-3.441-3.51-3.441h-6.454v12.926h6.454c0 0 3.941 0.129 3.941-3.816-0.001-0.001 0.171-3.21-2.323-3.21zM2.844 5.697h3.61c0 0 0.878 0 0.878 1.344 0 1.346-0.516 1.541-1.102 1.541h-3.386v-2.885zM6.271 14.029h-3.427v-3.455h3.61c0 0 1.308-0.018 1.308 1.775 0 1.512-0.977 1.669-1.491 1.68zM15.649 6.688c-4.771 0-4.767 4.967-4.767 4.967s-0.326 4.941 4.767 4.941c0 0 4.243 0.254 4.243-3.437h-2.182c0 0 0.072 1.391-1.988 1.391 0 0-2.184 0.152-2.184-2.25h6.423c0.001-0.001 0.709-5.612-4.312-5.612zM17.59 10.574h-4.074c0 0 0.266-1.992 2.182-1.992s1.892 1.992 1.892 1.992zM18.097 4.16h-5.117v1.594h5.117v-1.594z"></path>
</symbol>
<symbol id="icon-dribbble" viewBox="0 0 32 32">
<path d="M31.676 12.779c-0.211-1.027-0.525-2.040-0.934-3.007-0.4-0.949-0.897-1.863-1.476-2.718-0.572-0.847-1.229-1.643-1.952-2.366-0.725-0.725-1.521-1.382-2.367-1.953-0.855-0.579-1.771-1.075-2.719-1.476-0.967-0.407-1.979-0.724-3.007-0.933-1.053-0.216-2.137-0.326-3.221-0.326s-2.168 0.11-3.223 0.326c-1.027 0.209-2.039 0.525-3.006 0.933-0.948 0.401-1.863 0.897-2.718 1.476-0.847 0.571-1.644 1.228-2.367 1.953-0.724 0.723-1.38 1.519-1.952 2.366-0.579 0.854-1.075 1.768-1.476 2.717-0.409 0.967-0.723 1.98-0.934 3.007-0.215 1.053-0.324 2.138-0.324 3.22 0 1.087 0.109 2.172 0.324 3.225 0.211 1.026 0.524 2.039 0.934 3.005 0.401 0.948 0.897 1.865 1.476 2.72 0.572 0.847 1.229 1.642 1.952 2.366 0.724 0.723 1.521 1.379 2.367 1.951 0.855 0.578 1.771 1.075 2.719 1.476 0.967 0.41 1.979 0.722 3.006 0.934 1.054 0.216 2.138 0.325 3.222 0.325s2.168-0.109 3.222-0.326c1.028-0.212 2.040-0.523 3.007-0.934 0.948-0.4 1.863-0.897 2.719-1.476 0.847-0.572 1.643-1.229 2.367-1.951 0.723-0.725 1.38-1.52 1.952-2.366 0.578-0.854 1.075-1.771 1.476-2.72 0.408-0.966 0.723-1.979 0.934-3.005 0.214-1.052 0.323-2.137 0.323-3.224 0-1.082-0.109-2.167-0.324-3.219zM29.66 15.863c-0.197-0.043-4.822-1.037-9.518-0.447-0.096-0.234-0.193-0.469-0.295-0.705-0.283-0.67-0.59-1.332-0.908-1.983 5.396-2.202 7.588-5.37 7.613-5.408 1.918 2.328 3.077 5.301 3.108 8.543zM25.025 5.746c-0.033 0.054-1.98 3.015-7.138 4.947-2.336-4.292-4.902-7.7-5.108-7.971 1.033-0.251 2.112-0.386 3.221-0.386 3.46 0 6.617 1.289 9.025 3.41zM12.728 2.733c-0.001 0.002-0.003 0.003-0.003 0.003s-0.016 0.004-0.041 0.009c0.013-0.004 0.029-0.007 0.044-0.012zM10.17 3.642c0.182 0.244 2.709 3.669 5.074 7.873-6.561 1.743-12.255 1.675-12.616 1.668 0.888-4.232 3.731-7.74 7.542-9.541zM2.336 15.998c0-0.145 0.006-0.287 0.012-0.431 0.24 0.005 6.992 0.158 14.027-1.947 0.393 0.766 0.767 1.545 1.109 2.323-0.182 0.051-0.359 0.104-0.539 0.163-7.374 2.383-11.114 9.018-11.114 9.018s0.005 0.004 0.006 0.006c-2.176-2.42-3.501-5.62-3.501-9.132zM16 29.663c-3.307 0-6.34-1.176-8.704-3.131 0.181 0.146 0.306 0.239 0.306 0.239s2.619-5.713 10.725-8.535c0.029-0.012 0.060-0.020 0.090-0.029 1.923 4.995 2.717 9.181 2.919 10.374-1.641 0.696-3.443 1.082-5.336 1.082zM23.636 27.333c-0.14-0.826-0.867-4.836-2.659-9.761 4.411-0.705 8.233 0.505 8.516 0.598-0.609 3.806-2.789 7.091-5.857 9.163z"></path>
</symbol>
<symbol id="icon-download" viewBox="0 0 32 32">
<path d="M16 18l8-8h-6v-8h-4v8h-6zM23.273 14.727l-2.242 2.242 8.128 3.031-13.158 4.907-13.158-4.907 8.127-3.031-2.242-2.242-8.727 3.273v8l16 6 16-6v-8z"></path>
</symbol>
<symbol id="icon-upload" viewBox="0 0 32 32">
<path d="M14 18h4v-8h6l-8-8-8 8h6zM20 13.5v3.085l9.158 3.415-13.158 4.907-13.158-4.907 9.158-3.415v-3.085l-12 4.5v8l16 6 16-6v-8z"></path>
</symbol>
<symbol id="icon-undo2" viewBox="0 0 32 32">
<path d="M23.808 32c3.554-6.439 4.153-16.26-9.808-15.932v7.932l-12-12 12-12v7.762c16.718-0.436 18.58 14.757 9.808 24.238z"></path>
</symbol>
<symbol id="icon-redo2" viewBox="0 0 32 32">
<path d="M18 7.762v-7.762l12 12-12 12v-7.932c-13.961-0.328-13.362 9.493-9.808 15.932-8.772-9.482-6.909-24.674 9.808-24.238z"></path>
</symbol>
<symbol id="icon-forward" viewBox="0 0 32 32">
<path d="M8.192 0c-3.554 6.439-4.153 16.259 9.808 15.932v-7.932l12 12-12 12v-7.762c-16.718 0.436-18.58-14.757-9.808-24.238z"></path>
</symbol>
<symbol id="icon-reply" viewBox="0 0 32 32">
<path d="M14 24.238v7.762l-12-12 12-12v7.932c13.961 0.327 13.362-9.493 9.808-15.932 8.772 9.482 6.909 24.674-9.808 24.238z"></path>
</symbol>
<symbol id="icon-instagram" viewBox="0 0 32 32">
<path d="M16 2.881c4.275 0 4.781 0.019 6.462 0.094 1.563 0.069 2.406 0.331 2.969 0.55 0.744 0.288 1.281 0.638 1.837 1.194 0.563 0.563 0.906 1.094 1.2 1.838 0.219 0.563 0.481 1.412 0.55 2.969 0.075 1.688 0.094 2.194 0.094 6.463s-0.019 4.781-0.094 6.463c-0.069 1.563-0.331 2.406-0.55 2.969-0.288 0.744-0.637 1.281-1.194 1.837-0.563 0.563-1.094 0.906-1.837 1.2-0.563 0.219-1.413 0.481-2.969 0.55-1.688 0.075-2.194 0.094-6.463 0.094s-4.781-0.019-6.463-0.094c-1.563-0.069-2.406-0.331-2.969-0.55-0.744-0.288-1.281-0.637-1.838-1.194-0.563-0.563-0.906-1.094-1.2-1.837-0.219-0.563-0.481-1.413-0.55-2.969-0.075-1.688-0.094-2.194-0.094-6.463s0.019-4.781 0.094-6.463c0.069-1.563 0.331-2.406 0.55-2.969 0.288-0.744 0.638-1.281 1.194-1.838 0.563-0.563 1.094-0.906 1.838-1.2 0.563-0.219 1.412-0.481 2.969-0.55 1.681-0.075 2.188-0.094 6.463-0.094zM16 0c-4.344 0-4.887 0.019-6.594 0.094-1.7 0.075-2.869 0.35-3.881 0.744-1.056 0.412-1.95 0.956-2.837 1.85-0.894 0.888-1.438 1.781-1.85 2.831-0.394 1.019-0.669 2.181-0.744 3.881-0.075 1.713-0.094 2.256-0.094 6.6s0.019 4.887 0.094 6.594c0.075 1.7 0.35 2.869 0.744 3.881 0.413 1.056 0.956 1.95 1.85 2.837 0.887 0.887 1.781 1.438 2.831 1.844 1.019 0.394 2.181 0.669 3.881 0.744 1.706 0.075 2.25 0.094 6.594 0.094s4.888-0.019 6.594-0.094c1.7-0.075 2.869-0.35 3.881-0.744 1.050-0.406 1.944-0.956 2.831-1.844s1.438-1.781 1.844-2.831c0.394-1.019 0.669-2.181 0.744-3.881 0.075-1.706 0.094-2.25 0.094-6.594s-0.019-4.887-0.094-6.594c-0.075-1.7-0.35-2.869-0.744-3.881-0.394-1.063-0.938-1.956-1.831-2.844-0.887-0.887-1.781-1.438-2.831-1.844-1.019-0.394-2.181-0.669-3.881-0.744-1.712-0.081-2.256-0.1-6.6-0.1v0z"></path>
<path d="M16 7.781c-4.537 0-8.219 3.681-8.219 8.219s3.681 8.219 8.219 8.219 8.219-3.681 8.219-8.219c0-4.537-3.681-8.219-8.219-8.219zM16 21.331c-2.944 0-5.331-2.387-5.331-5.331s2.387-5.331 5.331-5.331c2.944 0 5.331 2.387 5.331 5.331s-2.387 5.331-5.331 5.331z"></path>
<path d="M26.462 7.456c0 1.060-0.859 1.919-1.919 1.919s-1.919-0.859-1.919-1.919c0-1.060 0.859-1.919 1.919-1.919s1.919 0.859 1.919 1.919z"></path>
</symbol>
<symbol id="icon-dribbble1" viewBox="0 0 32 32">
<path d="M16 32c-8.825 0-16-7.175-16-16s7.175-16 16-16c8.825 0 16 7.175 16 16s-7.175 16-16 16v0zM29.494 18.188c-0.469-0.15-4.231-1.269-8.512-0.581 1.788 4.912 2.512 8.912 2.656 9.744 3.063-2.075 5.25-5.356 5.856-9.163v0zM21.337 28.6c-0.206-1.2-0.994-5.375-2.913-10.363-0.031 0.012-0.063 0.019-0.087 0.031-7.713 2.688-10.481 8.031-10.725 8.531 2.319 1.806 5.231 2.887 8.387 2.887 1.894 0 3.7-0.387 5.338-1.087v0zM5.844 25.156c0.313-0.531 4.063-6.738 11.106-9.019 0.175-0.056 0.356-0.113 0.538-0.162-0.344-0.775-0.719-1.556-1.106-2.319-6.819 2.044-13.444 1.956-14.044 1.95-0.006 0.137-0.006 0.275-0.006 0.419 0 3.506 1.331 6.712 3.512 9.131v0zM2.625 13.219c0.612 0.006 6.244 0.031 12.637-1.662-2.262-4.025-4.706-7.412-5.069-7.906-3.825 1.806-6.688 5.331-7.569 9.569v0zM12.8 2.731c0.375 0.506 2.863 3.888 5.1 8 4.863-1.819 6.919-4.588 7.163-4.938-2.413-2.144-5.587-3.444-9.063-3.444-1.1 0.006-2.175 0.138-3.2 0.381v0zM26.581 7.381c-0.288 0.388-2.581 3.325-7.631 5.388 0.319 0.65 0.625 1.313 0.906 1.981 0.1 0.238 0.2 0.469 0.294 0.706 4.55-0.569 9.069 0.344 9.519 0.438-0.031-3.225-1.188-6.188-3.087-8.512v0z"></path>
</symbol>
<symbol id="icon-behance1" viewBox="0 0 32 32">
<path d="M9.281 6.412c0.944 0 1.794 0.081 2.569 0.25 0.775 0.162 1.431 0.438 1.988 0.813 0.55 0.375 0.975 0.875 1.287 1.5 0.3 0.619 0.45 1.394 0.45 2.313 0 0.994-0.225 1.819-0.675 2.481-0.456 0.662-1.119 1.2-2.006 1.625 1.213 0.35 2.106 0.962 2.706 1.831 0.6 0.875 0.887 1.925 0.887 3.163 0 1-0.194 1.856-0.575 2.581-0.387 0.731-0.912 1.325-1.556 1.781-0.65 0.462-1.4 0.8-2.237 1.019-0.831 0.219-1.688 0.331-2.575 0.331h-9.544v-19.688h9.281zM8.719 14.363c0.769 0 1.406-0.181 1.906-0.55 0.5-0.363 0.738-0.963 0.738-1.787 0-0.456-0.081-0.838-0.244-1.131-0.169-0.294-0.387-0.525-0.669-0.688-0.275-0.169-0.588-0.281-0.956-0.344-0.356-0.069-0.731-0.1-1.113-0.1h-4.050v4.6h4.388zM8.956 22.744c0.425 0 0.831-0.038 1.213-0.125 0.387-0.087 0.731-0.219 1.019-0.419 0.287-0.194 0.531-0.45 0.706-0.788 0.175-0.331 0.256-0.756 0.256-1.275 0-1.012-0.287-1.738-0.856-2.175-0.569-0.431-1.325-0.644-2.262-0.644h-4.7v5.419h4.625z"></path>
<path d="M22.663 22.675c0.587 0.575 1.431 0.863 2.531 0.863 0.788 0 1.475-0.2 2.044-0.6s0.913-0.825 1.044-1.262h3.45c-0.556 1.719-1.394 2.938-2.544 3.675-1.131 0.738-2.519 1.113-4.125 1.113-1.125 0-2.131-0.181-3.038-0.538-0.906-0.363-1.663-0.869-2.3-1.531-0.619-0.663-1.106-1.45-1.45-2.375-0.337-0.919-0.512-1.938-0.512-3.038 0-1.069 0.175-2.063 0.525-2.981 0.356-0.925 0.844-1.719 1.494-2.387s1.413-1.2 2.313-1.588c0.894-0.387 1.881-0.581 2.975-0.581 1.206 0 2.262 0.231 3.169 0.706 0.9 0.469 1.644 1.1 2.225 1.887s0.994 1.694 1.25 2.706c0.256 1.012 0.344 2.069 0.275 3.175h-10.294c0 1.119 0.375 2.188 0.969 2.756zM27.156 15.188c-0.462-0.512-1.256-0.794-2.212-0.794-0.625 0-1.144 0.106-1.556 0.319-0.406 0.213-0.738 0.475-0.994 0.787-0.25 0.313-0.425 0.65-0.525 1.006-0.1 0.344-0.163 0.663-0.181 0.938h6.375c-0.094-1-0.438-1.738-0.906-2.256z"></path>
<path d="M20.887 8h7.981v1.944h-7.981v-1.944z"></path>
</symbol>
<symbol id="icon-pinterest-p" viewBox="0 0 20 28">
<path d="M0 9.328c0-5.766 5.281-9.328 10.625-9.328 4.906 0 9.375 3.375 9.375 8.547 0 4.859-2.484 10.25-8.016 10.25-1.313 0-2.969-0.656-3.609-1.875-1.188 4.703-1.094 5.406-3.719 9l-0.219 0.078-0.141-0.156c-0.094-0.984-0.234-1.953-0.234-2.938 0-3.187 1.469-7.797 2.188-10.891-0.391-0.797-0.5-1.766-0.5-2.641 0-1.578 1.094-3.578 2.875-3.578 1.313 0 2.016 1 2.016 2.234 0 2.031-1.375 3.938-1.375 5.906 0 1.344 1.109 2.281 2.406 2.281 3.594 0 4.703-5.187 4.703-7.953 0-3.703-2.625-5.719-6.172-5.719-4.125 0-7.313 2.969-7.313 7.156 0 2.016 1.234 3.047 1.234 3.531 0 0.406-0.297 1.844-0.812 1.844-0.078 0-0.187-0.031-0.266-0.047-2.234-0.672-3.047-3.656-3.047-5.703z"></path>
</symbol>
<symbol id="icon-pinterest" viewBox="0 0 24 28">
<path d="M24 14c0 6.625-5.375 12-12 12-1.188 0-2.312-0.172-3.406-0.5 0.453-0.719 0.969-1.641 1.219-2.562 0 0 0.141-0.531 0.844-3.297 0.406 0.797 1.625 1.5 2.922 1.5 3.859 0 6.484-3.516 6.484-8.234 0-3.547-3.016-6.875-7.609-6.875-5.688 0-8.563 4.094-8.563 7.5 0 2.063 0.781 3.906 2.453 4.594 0.266 0.109 0.516 0 0.594-0.313 0.063-0.203 0.187-0.734 0.25-0.953 0.078-0.313 0.047-0.406-0.172-0.672-0.484-0.578-0.797-1.313-0.797-2.359 0-3.031 2.266-5.75 5.906-5.75 3.219 0 5 1.969 5 4.609 0 3.453-1.531 6.375-3.813 6.375-1.25 0-2.188-1.031-1.891-2.312 0.359-1.516 1.062-3.156 1.062-4.25 0-0.984-0.531-1.813-1.625-1.813-1.281 0-2.312 1.328-2.312 3.109 0 0 0 1.141 0.391 1.906-1.313 5.563-1.547 6.531-1.547 6.531-0.219 0.906-0.234 1.922-0.203 2.766-4.234-1.859-7.187-6.078-7.187-11 0-6.625 5.375-12 12-12s12 5.375 12 12z"></path>
</symbol>
<symbol id="icon-instagram1" viewBox="0 0 24 28">
<path d="M16 14c0-2.203-1.797-4-4-4s-4 1.797-4 4 1.797 4 4 4 4-1.797 4-4zM18.156 14c0 3.406-2.75 6.156-6.156 6.156s-6.156-2.75-6.156-6.156 2.75-6.156 6.156-6.156 6.156 2.75 6.156 6.156zM19.844 7.594c0 0.797-0.641 1.437-1.437 1.437s-1.437-0.641-1.437-1.437 0.641-1.437 1.437-1.437 1.437 0.641 1.437 1.437zM12 4.156c-1.75 0-5.5-0.141-7.078 0.484-0.547 0.219-0.953 0.484-1.375 0.906s-0.688 0.828-0.906 1.375c-0.625 1.578-0.484 5.328-0.484 7.078s-0.141 5.5 0.484 7.078c0.219 0.547 0.484 0.953 0.906 1.375s0.828 0.688 1.375 0.906c1.578 0.625 5.328 0.484 7.078 0.484s5.5 0.141 7.078-0.484c0.547-0.219 0.953-0.484 1.375-0.906s0.688-0.828 0.906-1.375c0.625-1.578 0.484-5.328 0.484-7.078s0.141-5.5-0.484-7.078c-0.219-0.547-0.484-0.953-0.906-1.375s-0.828-0.688-1.375-0.906c-1.578-0.625-5.328-0.484-7.078-0.484zM24 14c0 1.656 0.016 3.297-0.078 4.953-0.094 1.922-0.531 3.625-1.937 5.031s-3.109 1.844-5.031 1.937c-1.656 0.094-3.297 0.078-4.953 0.078s-3.297 0.016-4.953-0.078c-1.922-0.094-3.625-0.531-5.031-1.937s-1.844-3.109-1.937-5.031c-0.094-1.656-0.078-3.297-0.078-4.953s-0.016-3.297 0.078-4.953c0.094-1.922 0.531-3.625 1.937-5.031s3.109-1.844 5.031-1.937c1.656-0.094 3.297-0.078 4.953-0.078s3.297-0.016 4.953 0.078c1.922 0.094 3.625 0.531 5.031 1.937s1.844 3.109 1.937 5.031c0.094 1.656 0.078 3.297 0.078 4.953z"></path>
</symbol>
<symbol id="icon-twitter" viewBox="0 0 32 32">
<path d="M16-0.034c-8.841 0-16.035 7.192-16.035 16.034s7.194 16.034 16.035 16.034 16.035-7.192 16.035-16.034-7.194-16.034-16.035-16.034zM16 30.966c-8.252 0-14.965-6.714-14.965-14.966s6.713-14.966 14.965-14.966 14.965 6.714 14.965 14.966-6.713 14.966-14.965 14.966zM24.794 11.046c0.11-0.204 0.202-0.419 0.273-0.643 0.067-0.212-0.002-0.442-0.176-0.581-0.173-0.138-0.415-0.154-0.605-0.042-0.513 0.305-1.065 0.53-1.646 0.673-0.698-0.631-1.615-0.987-2.562-0.987-2.105 0-3.817 1.712-3.817 3.815 0 0.053 0.001 0.105 0.003 0.158-2.235-0.279-4.298-1.415-5.735-3.178-0.11-0.136-0.28-0.207-0.456-0.195-0.175 0.014-0.332 0.112-0.42 0.265-0.338 0.58-0.517 1.243-0.517 1.919 0 0.64 0.159 1.256 0.451 1.802-0.074 0.012-0.147 0.039-0.214 0.078-0.163 0.097-0.264 0.292-0.264 0.481 0 1.135 0.505 2.177 1.319 2.885-0.012 0.011-0.023 0.023-0.035 0.035-0.125 0.142-0.166 0.338-0.108 0.518 0.351 1.094 1.164 1.946 2.184 2.365-1.041 0.515-2.25 0.716-3.406 0.579-0.244-0.022-0.481 0.116-0.566 0.352-0.083 0.234 0.005 0.495 0.215 0.63 1.592 1.020 3.431 1.559 5.319 1.559 6.18 0 9.874-5.020 9.874-9.873 0-0.055 0-0.109-0.001-0.164 0.597-0.466 1.115-1.023 1.541-1.66 0.132-0.197 0.118-0.459-0.035-0.641-0.151-0.179-0.4-0.241-0.616-0.15zM23.049 12.801c-0.147 0.106-0.231 0.279-0.222 0.461 0.006 0.132 0.009 0.266 0.009 0.398 0 4.328-3.293 8.805-8.804 8.805-0.989 0-1.964-0.166-2.887-0.488 1.105-0.211 2.141-0.682 3.045-1.39 0.178-0.14 0.249-0.376 0.177-0.591-0.072-0.214-0.271-0.36-0.497-0.364-0.891-0.018-1.699-0.461-2.194-1.162 0.253-0.017 0.501-0.059 0.742-0.124 0.239-0.065 0.401-0.286 0.393-0.534s-0.186-0.457-0.429-0.506c-1.003-0.201-1.79-0.943-2.081-1.905 0.266 0.067 0.539 0.106 0.812 0.115 0.235-0.001 0.453-0.145 0.526-0.371s-0.013-0.475-0.212-0.607c-0.765-0.512-1.222-1.366-1.222-2.287 0-0.223 0.027-0.443 0.079-0.658 1.731 1.775 4.080 2.847 6.568 2.972 0.176 0.001 0.33-0.062 0.437-0.191s0.148-0.3 0.11-0.464c-0.047-0.203-0.071-0.414-0.071-0.627 0-1.515 1.233-2.747 2.748-2.747 0.757 0 1.488 0.316 2.005 0.868 0.126 0.135 0.312 0.194 0.494 0.159 0.165-0.033 0.328-0.071 0.489-0.115-0.072 0.054-0.147 0.104-0.226 0.151-0.216 0.129-0.312 0.393-0.231 0.631s0.324 0.394 0.569 0.357c0.061-0.007 0.121-0.015 0.182-0.023-0.099 0.082-0.203 0.161-0.309 0.237z"></path>
</symbol>
<symbol id="icon-facebook" viewBox="0 0 32 32">
<path d="M16-0.034c-8.841 0-16.035 7.192-16.035 16.034s7.194 16.034 16.035 16.034 16.035-7.192 16.035-16.034-7.194-16.034-16.035-16.034zM16 30.966c-8.252 0-14.965-6.714-14.965-14.966s6.713-14.966 14.965-14.966 14.965 6.714 14.965 14.966-6.713 14.966-14.965 14.966zM19.5 7h-2.668c-3.398-0.034-3.832 2.069-3.832 4.345v1.655h-1.5c-0.295-0.034-0.535 0.205-0.5 0.5v3c-0.035 0.295 0.205 0.534 0.5 0.5h1.5v7.5c-0.031 0.295 0.208 0.534 0.503 0.5h3.055c0.295 0.034 0.534-0.205 0.44-0.5l0.002-7.5h2.5c0.295 0.034 0.535-0.205 0.5-0.5v-3c0.035-0.295-0.205-0.534-0.5-0.5h-2.503l0.003-1.5c0.097-0.639 0.097-0.535 0.69-0.5h1.789c0.139-0.031 0.287-0.014 0.391-0.115s0.164-0.239 0.129-0.385v-3c0.036-0.295-0.204-0.534-0.499-0.5zM18.965 9.944l-1.254-0.048c-1.553 0-1.683 0.843-1.683 1.706l-0.004 1.896c0 0.142 0.056 0.278 0.156 0.379s0.236 0.156 0.378 0.156h2.442v1.932h-2.44c-0.295 0-0.534 0.239-0.535 0.534l-0.001 7.501h-2.024v-7.5c0-0.295-0.201-0.534-0.497-0.534h-1.503v-1.932h1.503c0.142 0 0.278-0.056 0.378-0.156s0.118-0.237 0.118-0.379v-2.155c0-2.242 0.453-3.31 2.832-3.31h2.133v1.91z"></path>
</symbol>
<symbol id="icon-shopping-bag" viewBox="0 0 32 32">
<path d="M22.667 5.333h-13.333c-2.205 0-4 1.795-4 4v14.667c0 2.205 1.795 4 4 4h13.333c2.205 0 4-1.795 4-4v-14.667c0-2.205-1.795-4-4-4zM24 24c0 0.735-0.597 1.333-1.333 1.333h-13.333c-0.736 0-1.333-0.599-1.333-1.333v-9.707c0.395 0.232 0.847 0.373 1.333 0.373h2c0 2.573 2.093 4.667 4.667 4.667s4.667-2.093 4.667-4.667h2c0.487 0 0.939-0.141 1.333-0.372v9.705zM12.667 14.667h6.667c0 1.837-1.495 3.333-3.333 3.333s-3.333-1.496-3.333-3.333zM24 12c0 0.735-0.597 1.333-1.333 1.333h-13.333c-0.736 0-1.333-0.599-1.333-1.333v-2.667c0-0.735 0.597-1.333 1.333-1.333h13.333c0.736 0 1.333 0.599 1.333 1.333v2.667z"></path>
</symbol>
<symbol id="icon-social-pinterest-circular" viewBox="0 0 24 24">
<path d="M12 21c-4.963 0-9-4.037-9-9s4.037-9 9-9 9 4.037 9 9-4.037 9-9 9zM12 5c-3.859 0-7 3.141-7 7s3.141 7 7 7 7-3.141 7-7-3.141-7-7-7z"></path>
<path d="M12.335 8c-2.468 0-3.712 1.77-3.712 3.244 0 0.895 0.338 1.688 1.063 1.984 0.119 0.049 0.226 0.002 0.261-0.129 0.023-0.092 0.080-0.322 0.105-0.418 0.035-0.129 0.021-0.175-0.074-0.289-0.209-0.246-0.344-0.566-0.344-1.019 0-1.312 0.982-2.487 2.558-2.487 1.396 0 2.161 0.853 2.161 1.99 0 1.498-0.662 2.762-1.646 2.762-0.543 0-0.95-0.449-0.82-1.001 0.156-0.658 0.459-1.368 0.459-1.843 0-0.426-0.229-0.779-0.7-0.779-0.556 0-1.002 0.574-1.002 1.344 0 0.49 0.166 0.822 0.166 0.822s-0.569 2.408-0.669 2.83c-0.198 0.84-0.029 1.87-0.015 1.974 0.008 0.062 0.087 0.077 0.123 0.030 0.052-0.067 0.713-0.885 0.938-1.7 0.064-0.23 0.366-1.427 0.366-1.427 0.18 0.344 0.707 0.646 1.268 0.646 1.67 0 2.803-1.521 2.803-3.56-0.001-1.538-1.306-2.974-3.289-2.974z"></path>
</symbol>
<symbol id="icon-social-pinterest" viewBox="0 0 24 24">
<path d="M12.486 4.771c-4.23 0-6.363 3.033-6.363 5.562 0 1.533 0.581 2.894 1.823 3.401 0.205 0.084 0.387 0.004 0.446-0.221 0.041-0.157 0.138-0.553 0.182-0.717 0.061-0.221 0.037-0.3-0.127-0.495-0.359-0.422-0.588-0.972-0.588-1.747 0-2.25 1.683-4.264 4.384-4.264 2.392 0 3.706 1.463 3.706 3.412 0 2.568-1.137 4.734-2.824 4.734-0.932 0-1.629-0.77-1.405-1.715 0.268-1.13 0.786-2.347 0.786-3.16 0-0.729-0.392-1.336-1.2-1.336-0.952 0-1.718 0.984-1.718 2.304 0 0.841 0.286 1.409 0.286 1.409s-0.976 4.129-1.146 4.852c-0.34 1.44-0.051 3.206-0.025 3.385 0.013 0.104 0.149 0.131 0.21 0.051 0.088-0.115 1.223-1.517 1.607-2.915 0.111-0.396 0.627-2.445 0.627-2.445 0.311 0.589 1.213 1.108 2.175 1.108 2.863 0 4.804-2.608 4.804-6.103-0.003-2.64-2.24-5.1-5.64-5.1z"></path>
</symbol>
<symbol id="icon-shopping-bag" viewBox="0 0 24 24">
<path d="M17 4h-10c-1.654 0-3 1.346-3 3v11c0 1.654 1.346 3 3 3h10c1.654 0 3-1.346 3-3v-11c0-1.654-1.346-3-3-3zM18 18c0 0.551-0.448 1-1 1h-10c-0.552 0-1-0.449-1-1v-7.28c0.296 0.174 0.635 0.28 1 0.28h1.5c0 1.93 1.57 3.5 3.5 3.5s3.5-1.57 3.5-3.5h1.5c0.365 0 0.704-0.106 1-0.279v7.279zM9.5 11h5c0 1.378-1.121 2.5-2.5 2.5s-2.5-1.122-2.5-2.5zM18 9c0 0.551-0.448 1-1 1h-10c-0.552 0-1-0.449-1-1v-2c0-0.551 0.448-1 1-1h10c0.552 0 1 0.449 1 1v2z"></path>
</symbol>
<symbol id="icon-instagram2" viewBox="0 0 24 24">
<path d="M7 1c-1.657 0-3.158 0.673-4.243 1.757s-1.757 2.586-1.757 4.243v10c0 1.657 0.673 3.158 1.757 4.243s2.586 1.757 4.243 1.757h10c1.657 0 3.158-0.673 4.243-1.757s1.757-2.586 1.757-4.243v-10c0-1.657-0.673-3.158-1.757-4.243s-2.586-1.757-4.243-1.757zM7 3h10c1.105 0 2.103 0.447 2.828 1.172s1.172 1.723 1.172 2.828v10c0 1.105-0.447 2.103-1.172 2.828s-1.723 1.172-2.828 1.172h-10c-1.105 0-2.103-0.447-2.828-1.172s-1.172-1.723-1.172-2.828v-10c0-1.105 0.447-2.103 1.172-2.828s1.723-1.172 2.828-1.172zM16.989 11.223c-0.15-0.972-0.571-1.857-1.194-2.567-0.754-0.861-1.804-1.465-3.009-1.644-0.464-0.074-0.97-0.077-1.477-0.002-1.366 0.202-2.521 0.941-3.282 1.967s-1.133 2.347-0.93 3.712 0.941 2.521 1.967 3.282 2.347 1.133 3.712 0.93 2.521-0.941 3.282-1.967 1.133-2.347 0.93-3.712zM15.011 11.517c0.122 0.82-0.1 1.609-0.558 2.227s-1.15 1.059-1.969 1.18-1.609-0.1-2.227-0.558-1.059-1.15-1.18-1.969 0.1-1.609 0.558-2.227 1.15-1.059 1.969-1.18c0.313-0.046 0.615-0.042 0.87-0.002 0.74 0.11 1.366 0.47 1.818 0.986 0.375 0.428 0.63 0.963 0.72 1.543zM17.5 7.5c0.552 0 1-0.448 1-1s-0.448-1-1-1-1 0.448-1 1 0.448 1 1 1z"></path>
</symbol>
<symbol id="icon-shopping-bag1" viewBox="0 0 24 24">
<path d="M19 5h-14l1.5-2h11zM21.794 5.392l-2.994-3.992c-0.196-0.261-0.494-0.399-0.8-0.4h-12c-0.326 0-0.616 0.156-0.8 0.4l-2.994 3.992c-0.043 0.056-0.081 0.117-0.111 0.182-0.065 0.137-0.096 0.283-0.095 0.426v14c0 0.828 0.337 1.58 0.879 2.121s1.293 0.879 2.121 0.879h14c0.828 0 1.58-0.337 2.121-0.879s0.879-1.293 0.879-2.121v-14c0-0.219-0.071-0.422-0.189-0.585-0.004-0.005-0.007-0.010-0.011-0.015zM4 7h16v13c0 0.276-0.111 0.525-0.293 0.707s-0.431 0.293-0.707 0.293h-14c-0.276 0-0.525-0.111-0.707-0.293s-0.293-0.431-0.293-0.707zM15 10c0 0.829-0.335 1.577-0.879 2.121s-1.292 0.879-2.121 0.879-1.577-0.335-2.121-0.879-0.879-1.292-0.879-2.121c0-0.552-0.448-1-1-1s-1 0.448-1 1c0 1.38 0.561 2.632 1.464 3.536s2.156 1.464 3.536 1.464 2.632-0.561 3.536-1.464 1.464-2.156 1.464-3.536c0-0.552-0.448-1-1-1s-1 0.448-1 1z"></path>
</symbol>
<symbol id="icon-shopping-cart" viewBox="0 0 24 24">
<path d="M11 21c0-0.552-0.225-1.053-0.586-1.414s-0.862-0.586-1.414-0.586-1.053 0.225-1.414 0.586-0.586 0.862-0.586 1.414 0.225 1.053 0.586 1.414 0.862 0.586 1.414 0.586 1.053-0.225 1.414-0.586 0.586-0.862 0.586-1.414zM22 21c0-0.552-0.225-1.053-0.586-1.414s-0.862-0.586-1.414-0.586-1.053 0.225-1.414 0.586-0.586 0.862-0.586 1.414 0.225 1.053 0.586 1.414 0.862 0.586 1.414 0.586 1.053-0.225 1.414-0.586 0.586-0.862 0.586-1.414zM7.221 7h14.57l-1.371 7.191c-0.046 0.228-0.166 0.425-0.332 0.568-0.18 0.156-0.413 0.246-0.688 0.241h-9.734c-0.232 0.003-0.451-0.071-0.626-0.203-0.19-0.143-0.329-0.351-0.379-0.603zM1 2h3.18l0.848 4.239c0.108 0.437 0.502 0.761 0.972 0.761h1.221l-0.4-2h-0.821c-0.552 0-1 0.448-1 1 0 0.053 0.004 0.105 0.012 0.155 0.004 0.028 0.010 0.057 0.017 0.084l1.671 8.347c0.149 0.751 0.57 1.383 1.14 1.811 0.521 0.392 1.17 0.613 1.854 0.603h9.706c0.748 0.015 1.455-0.261 1.995-0.727 0.494-0.426 0.848-1.013 0.985-1.683l1.602-8.402c0.103-0.543-0.252-1.066-0.795-1.17-0.065-0.013-0.13-0.019-0.187-0.018h-16.18l-0.84-4.196c-0.094-0.462-0.497-0.804-0.98-0.804h-4c-0.552 0-1 0.448-1 1s0.448 1 1 1z"></path>
</symbol>
</defs>
</svg>
